{
.appVersion = "3133";
.formatVersion = 3;
customParameters = (
{
name = fsType;
value = (
);
},
{
name = "Use Typo Metrics";
value = 1;
},
{
name = "Write lastChange";
value = 0;
}
);
date = "2024-03-26 06:21:29 +0000";
familyName = "Badeen Display";
featurePrefixes = (
{
automatic = 1;
code = "languagesystem DFLT dflt;

languagesystem arab dflt;

languagesystem latn dflt;
languagesystem latn AZE;
languagesystem latn CRT;
languagesystem latn KAZ;
languagesystem latn TAT;
languagesystem latn TRK;
languagesystem latn ROM;
languagesystem latn MOL;
languagesystem latn CAT;
";
name = Languagesystems;
}
);
features = (
{
automatic = 1;
code = "feature locl;
feature ordn;
feature c2sc;
feature smcp;
feature case;
feature init;
feature medi;
feature fina;
";
tag = aalt;
},
{
automatic = 1;
code = "lookup ccmp_Other_1 {
	@CombiningTopAccents = [acutecomb brevecomb caroncomb circumflexcomb commaturnedabovecomb dieresiscomb dotaccentcomb gravecomb hungarumlautcomb macroncomb ringcomb tildecomb];
	lookupflag UseMarkFilteringSet @CombiningTopAccents;
	sub i' @CombiningTopAccents by idotless;
	sub j' @CombiningTopAccents by jdotless;
} ccmp_Other_1;

lookup ccmp_arab_1 {
	lookupflag 0;
	sub hamzaabove-ar damma-ar by hamzaaboveDamma-ar;
	sub damma-ar hamzaabove-ar by hamzaaboveDamma-ar;
	sub hamzaabove-ar dammatan-ar by hamzaaboveDammatan-ar;
	sub dammatan-ar hamzaabove-ar by hamzaaboveDammatan-ar;
	sub hamzaabove-ar fatha-ar by hamzaaboveFatha-ar;
	sub fatha-ar hamzaabove-ar by hamzaaboveFatha-ar;
	sub hamzaabove-ar fathatan-ar by hamzaaboveFathatan-ar;
	sub fathatan-ar hamzaabove-ar by hamzaaboveFathatan-ar;
	sub hamzaabove-ar sukun-ar by hamzaaboveSukun-ar;
	sub sukun-ar hamzaabove-ar by hamzaaboveSukun-ar;
	sub hamzabelow-ar kasra-ar by hamzabelowKasra-ar;
	sub kasra-ar hamzabelow-ar by hamzabelowKasra-ar;
	sub hamzabelow-ar kasratan-ar by hamzabelowKasratan-ar;
	sub kasratan-ar hamzabelow-ar by hamzabelowKasratan-ar;
	sub shadda-ar alefabove-ar by shaddaAlefabove-ar;

glyphs = (
{
glyphname = A;
layers = (
{
anchors = (
{
name = bottom;
pos = (320,0);
},
{
name = ogonek;
pos = (630,0);
},
{
name = top;
pos = (320,700);
}
);
layerId = m01;
shapes = (
{
closed = 1;
nodes = (
(255,700,ls),
(10,700,o),
(10,700,o),
(10,455,cs),
(10,0,l),
(310,0,l),
(310,300,l),
(330,300,l),
(330,0,l),
(630,0,l),
(630,700,l)
);
},
{
closed = 1;
nodes = (
(310,480,ls),
(310,500,o),
(310,500,o),
(330,500,c),
(330,400,l),
(310,400,l)
);
}
);
width = 640;
}
);
unicode = 65;
},
{
glyphname = B;
layers = (
{
layerId = m01;
shapes = (
{
closed = 1;
nodes = (
(385,0,ls),
(630,0,o),
(630,0,o),
(630,245,cs),
(630,382,l),
(620,382,l),
(620,455,ls),
(620,700,o),
(620,700,o),
(375,700,cs),
(10,700,l),
(10,0,l)
);
},
{
closed = 1;
nodes = (
(310,500,l),
(330,500,o),
(330,500,o),
(330,480,cs),
(330,400,l),
(310,400,l)
);
},
{
closed = 1;
nodes = (
(330,298,l),
(330,218,ls),
(330,198,o),
(330,198,o),
(310,198,c),
(310,298,l)
);
}
);
width = 640;
}
);
unicode = 66;
},
{
glyphname = C;
layers = (
{
anchors = (
{
name = bottom;
pos = (320,0);
},
{
name = cedilla;
pos = (255,0);
},
{
name = top;
pos = (320,700);
}
);
layerId = m01;
shapes = (
{
closed = 1;
nodes = (
(255,700,ls),
(10,700,o),
(10,700,o),
(10,455,cs),
(10,245,ls),
(10,0,o),
(10,0,o),
(255,0,cs),
(385,0,ls),
(630,0,o),
(630,0,o),
(630,245,cs),
(630,340,l),
(330,340,l),
(330,210,l),
(310,210,o),
(310,210,o),
(310,230,cs),
(310,500,l),
(330,500,o),
(330,500,o),
(330,480,cs),
(330,360,l),
(630,360,l),
(630,455,ls),
(630,700,o),
(630,700,o),
(385,700,cs)
);
}
);
width = 640;
}
);
unicode = 67;
},
{
glyphname = D;
layers = (
{
anchors = (
{
name = bottom;
pos = (320,0);
},
{
name = center;
pos = (320,350);
},
{
name = top;
pos = (320,700);
}
);
layerId = m01;
shapes = (
{
closed = 1;
nodes = (
(330,320,ls),
(330,300,o),
(330,300,o),
(310,300,c),
(310,500,l),
(330,500,o),
(330,500,o),
(330,480,cs)
);
},
{
closed = 1;
nodes = (
(385,0,ls),
(630,0,o),
(630,0,o),
(630,245,cs),
(630,455,ls),
(630,700,o),
(630,700,o),
(385,700,cs),
(10,700,l),
(10,0,l)
);
}
);
width = 640;
}
);
unicode = 68;
},
{
glyphname = Eth;
layers = (
{
layerId = m01;
shapes = (
{
pos = (20,0);
ref = D;
},
{
closed = 1;
nodes = (
(10,250,l),
(150,250,l),
(150,450,l),
(10,450,l)
);
}
);
width = 660;
}
);
unicode = 208;
},
{
glyphname = E;
layers = (
{
anchors = (
{
name = bottom;
pos = (320,0);
},
{
name = ogonek;
pos = (630,0);
},
{
name = top;
pos = (320,700);
},
{
name = topleft;
pos = (20,700);
}
);
layerId = m01;
shapes = (
{
closed = 1;
nodes = (
(630,300,l),
(346,300,l),
(346,320,o),
(345,320,o),
(365,320,cs),
(630,320,l),
(630,500,l),
(346,500,l),
(346,520,o),
(345,520,o),
(365,520,cs),
(630,520,l),
(630,700,l),
(255,700,ls),
(10,700,o),
(10,700,o),
(10,455,cs),
(10,0,l),
(630,0,l)
);
}
);
width = 640;
}
);
unicode = 69;
},
{
glyphname = F;
layers = (
{
layerId = m01;
shapes = (
{
closed = 1;
nodes = (
(510,700,l),
(255,700,ls),
(10,700,o),
(10,700,o),
(10,455,cs),
(10,0,l),
(310,0,l),
(310,100,l),
(510,100,l),
(510,350,l),
(311,350,l),
(311,370,o),
(310,370,o),
(330,370,cs),
(510,370,l)
);
}
);
width = 520;
}
);
unicode = 70;
},
{
glyphname = G;
layers = (
{
anchors = (
{
name = bottom;
pos = (320,0);
},
{
name = top;
pos = (320,700);
}
);
layerId = m01;
shapes = (
{
closed = 1;
nodes = (
(255,700,ls),
(10,700,o),
(10,700,o),
(10,455,cs),
(10,245,ls),
(10,0,o),
(10,0,o),
(255,0,cs),
(630,0,l),
(630,480,l),
(330,480,l),
(330,301,l),
(310,301,o),
(310,301,o),
(310,321,cs),
(310,500,l),
(630,500,l),
(630,719,o),
(621,700,o),
(385,700,cs)
);
}
);
width = 640;
}
);
unicode = 71;
},
{
glyphname = H;
layers = (
{
layerId = m01;
shapes = (
{
closed = 1;
nodes = (
(10,0,l),
(310,0,l),
(310,300,l),
(320,300,ls),
(330,299,o),
(330,296,o),
(330,280,cs),
(330,0,l),
(630,0,l),
(630,455,ls),
(630,700,o),
(630,700,o),
(385,700,cs),
(330,700,l),
(330,460,l),
(320,460,ls),
(310,461,o),
(310,464,o),
(310,480,cs),
(310,700,l),
(10,700,l)
);
}
);
width = 640;
}
);
unicode = 72;
},
{
glyphname = Hbar;
layers = (
{
layerId = m01;
shapes = (
{
closed = 1;
nodes = (
(30,620,l),
(10,620,l),
(10,540,l),
(30,540,l),
(30,0,l),
(330,0,l),
(330,300,l),
(340,300,ls),
(350,299,o),
(350,296,o),
(350,280,cs),
(350,0,l),
(650,0,l),
(650,540,l),
(670,540,l),
(670,620,l),
(650,620,l),
(650,700,l),
(350,700,l),
(350,620,l),
(330,620,l),
(330,700,l),
(30,700,l)
);
},
{
closed = 1;
nodes = (
(340,460,ls),
(330,461,o),
(330,464,o),
(330,480,cs),
(330,540,l),
(350,540,l),
(350,460,l)
);
}
);
width = 680;
}
);
unicode = 294;
},
{
glyphname = I;
layers = (
{
anchors = (
{
name = bottom;
pos = (160,0);
},
{
name = ogonek;
pos = (310,0);
},
{
name = top;
pos = (160,700);
},
{
name = topleft;
pos = (20,700);
}
);
layerId = m01;
shapes = (
{
closed = 1;
nodes = (
(310,0,l),
(310,700,l),
(10,700,l),
(10,0,l)
);
}
);
width = 320;
}
);
unicode = 73;
},
{
glyphname = Idotaccent;
layers = (
{
anchors = (
{
name = top;
pos = (159.732,800);
}
);
layerId = m01;
shapes = (
{
ref = I;
},
{
closed = 1;
nodes = (
(10,720,l),
(310,720,l),
(310,800,l),
(10,800,l)
);
}
);
width = 320;
}
);
unicode = 304;
},
{
glyphname = J;
layers = (
{
anchors = (
{
name = bottom;
pos = (160,0);
},
{
name = top;
pos = (160,700);
}
);
layerId = m01;
shapes = (
{
closed = 1;
nodes = (
(65,0,ls),
(310,0,o),
(310,0,o),
(310,245,cs),
(310,700,l),
(10,700,l),
(10,0,l)
);
}
);
width = 320;
}
);
unicode = 74;
},
{
glyphname = K;
layers = (
{
anchors = (
{
name = bottom;
pos = (320,0);
},
{
name = top;
pos = (320,700);
}
);
layerId = m01;
shapes = (
{
closed = 1;
nodes = (
(310,0,l),
(310,300,ls),
(310,320,o),
(310,320,o),
(330,320,c),
(330,0,l),
(630,0,l),
(630,300,l),
(450,300,ls),
(430,300,o),
(430,300,o),
(430,320,c),
(630,320,l),
(630,700,l),
(330,700,l),
(330,480,ls),
(330,460,o),
(330,460,o),
(310,460,c),
(310,700,l),
(10,700,l),
(10,0,l)
);
}
);
width = 640;
}
);
unicode = 75;
},
{
glyphname = L;
layers = (
{
anchors = (
{
name = bottom;
pos = (210,0);
},
{
name = center;
pos = (210,350);
},
{
name = top;
pos = (210,700);
},
{
name = topright;
pos = (400,700);
}
);
layerId = m01;
shapes = (
{
closed = 1;
nodes = (
(410,0,l),
(410,500,l),
(310,500,l),
(310,700,l),
(10,700,l),
(10,245,ls),
(10,0,o),
(10,0,o),
(255,0,cs)
);
}
);
width = 420;
}
);
unicode = 76;
},
{
glyphname = Lslash;
layers = (
{
layerId = m01;
shapes = (
{
pos = (20,0);
ref = L;
},
{
closed = 1;
nodes = (
(350,620,l),
(350,700,l),
(10,600,l),
(10,520,l)
);
}
);
width = 440;
}
);
unicode = 321;
},
{
glyphname = M;
layers = (
{
layerId = m01;
shapes = (
{
closed = 1;
nodes = (
(330,500,o),
(330,500,o),
(330,480,cs),
(330,0,l),
(630,0,l),
(630,500,l),
(650,500,o),
(650,500,o),
(650,480,cs),
(650,0,l),
(950,0,l),
(950,455,ls),
(950,700,o),
(950,700,o),
(705,700,cs),
(10,700,l),
(10,0,l),
(310,0,l),
(310,500,l)
);
}
);
width = 960;
}
);
unicode = 77;
},
{
glyphname = N;
layers = (
{
anchors = (
{
name = bottom;
pos = (320,0);
},
{
name = top;
pos = (320,700);
}
);
layerId = m01;
shapes = (
{
closed = 1;
nodes = (
(10,0,l),
(310,0,l),
(310,500,l),
(320,500,ls),
(330,499,o),
(330,496,o),
(330,480,cs),
(330,0,l),
(630,0,l),
(630,455,ls),
(630,700,o),
(630,700,o),
(385,700,cs),
(10,700,l)
);
}
);
width = 640;
}
);
unicode = 78;
},
{
glyphname = Eng;
layers = (
{
anchors = (
{
name = bottom;
pos = (320,0);
},
{
name = top;
pos = (320,700);
}
);
layerId = m01;
shapes = (
{
closed = 1;
nodes = (
(10,0,l),
(310,0,l),
(310,500,l),
(320,500,ls),
(330,500,o),
(330,496,o),
(330,480,cs),
(330,-20,l),
(310,-20,l),
(310,-100,l),
(385,-100,ls),
(630,-100,o),
(630,-100,o),
(630,145,cs),
(630,455,ls),
(630,700,o),
(630,700,o),
(385,700,cs),
(10,700,l)
);
}
);
width = 640;
}
);
unicode = 330;
},
{
glyphname = O;
layers = (
{
anchors = (
{
name = bottom;
pos = (320,0);
},
{
name = center;
pos = (320,350);
},
{
name = ogonek;
pos = (576,10);
},
{
name = top;
pos = (320,700);
},
{
name = topleft;
pos = (20,700);
},
{
name = topright;
pos = (620,700);
}
);
layerId = m01;
shapes = (
{
closed = 1;
nodes = (
(255,700,ls),
(10,700,o),
(10,700,o),
(10,455,cs),
(10,245,ls),
(10,0,o),
(10,0,o),
(255,0,cs),
(385,0,ls),
(630,0,o),
(630,0,o),
(630,245,cs),
(630,455,ls),
(630,700,o),
(630,700,o),
(385,700,cs)
);
},
{
closed = 1;
nodes = (
(330,500,o),
(330,500,o),
(330,480,cs),
(330,300,l),
(310,300,o),
(310,300,o),
(310,320,cs),
(310,500,l)
);
}
);
width = 640;
}
);
unicode = 79;
},
{
glyphname = Oslash;
layers = (
{
anchors = (
{
name = bottom;
pos = (320,0);
},
{
name = center;
pos = (320,350);
},
{
name = ogonek;
pos = (576,10);
},
{
name = top;
pos = (320,700);
},
{
name = topleft;
pos = (20,700);
},
{
name = topright;
pos = (620,700);
}
);
layerId = m01;
shapes = (
{
closed = 1;
nodes = (
(255,700,ls),
(10,700,o),
(10,700,o),
(10,455,cs),
(10,245,ls),
(10,121,o),
(10,60,o),
(42,29,c),
(10,-21,l),
(59,-21,ls),
(91,-21,o),
(91,-21,o),
(107,5,c),
(142,0,o),
(190,0,o),
(255,0,cs),
(385,0,ls),
(630,0,o),
(630,0,o),
(630,245,cs),
(630,455,ls),
(630,579,o),
(630,640,o),
(598,670,c),
(630,720,l),
(581,720,ls),
(550,720,o),
(549,720,o),
(534,695,c),
(499,700,o),
(451,700,o),
(385,700,cs)
);
},
{
closed = 1;
nodes = (
(330,430,ls),
(330,410,o),
(330,410,o),
(310,410,c),
(310,480,ls),
(310,500,o),
(310,500,o),
(330,500,c)
);
},
{
closed = 1;
nodes = (
(330,220,ls),
(330,200,o),
(330,200,o),
(310,200,c),
(310,270,ls),
(310,290,o),
(310,290,o),
(330,290,c)
);
}
);
width = 640;
}
);
unicode = 216;
},
{
glyphname = P;
layers = (
{
layerId = m01;
shapes = (
{
closed = 1;
nodes = (
(310,500,l),
(330,500,o),
(330,500,o),
(330,480,cs),
(330,300,l),
(310,300,l)
);
},
{
closed = 1;
nodes = (
(310,100,l),
(385,100,ls),
(630,100,o),
(630,100,o),
(630,345,cs),
(630,355,ls),
(630,701,o),
(630,700,o),
(385,700,cs),
(10,700,l),
(10,0,l),
(310,0,l)
);
}
);
width = 640;
}
);
unicode = 80;
},
{
glyphname = Thorn;
layers = (
{
layerId = m01;
shapes = (
{
closed = 1;
nodes = (
(310,400,l),
(330,400,o),
(330,400,o),
(330,380,cs),
(330,300,l),
(310,300,l)
);
},
{
closed = 1;
nodes = (
(310,100,l),
(385,100,ls),
(630,100,o),
(630,100,o),
(630,345,cs),
(630,355,ls),
(630,601,o),
(630,600,o),
(385,600,cs),
(310,600,l),
(310,701,l),
(10,701,l),
(10,0,l),
(310,0,l)
);
}
);
width = 640;
}
);
unicode = 222;
},
{
glyphname = Q;
layers = (
{
layerId = m01;
shapes = (
{
closed = 1;
nodes = (
(255,700,ls),
(10,700,o),
(10,700,o),
(10,455,cs),
(10,245,ls),
(10,0,o),
(10,0,o),
(255,0,cs),
(640,0,l),
(640,300,l),
(630,300,l),
(630,455,ls),
(630,700,o),
(630,700,o),
(385,700,cs)
);
},
{
closed = 1;
nodes = (
(310,300,l),
(310,500,l),
(330,500,o),
(330,500,o),
(330,480,cs),
(330,300,l)
);
}
);
width = 650;
}
);
unicode = 81;
},
{
glyphname = R;
layers = (
{
anchors = (
{
name = bottom;
pos = (320,0);
},
{
name = top;
pos = (320,700);
}
);
layerId = m01;
shapes = (
{
closed = 1;
nodes = (
(310,450,l),
(310,560,l),
(330,560,o),
(330,560,o),
(330,540,cs),
(330,450,l)
);
},
{
closed = 1;
nodes = (
(310,0,l),
(310,300,l),
(330,300,l),
(330,0,l),
(630,0,l),
(630,300,l),
(500,300,ls),
(480,300,o),
(480,301,o),
(480,320,c),
(630,320,l),
(630,455,ls),
(630,700,o),
(630,700,o),
(385,700,cs),
(10,700,l),
(10,0,l)
);
}
);
width = 640;
}
);
unicode = 82;
},
{
glyphname = S;
layers = (
{
anchors = (
{
name = bottom;
pos = (310,0);
},
{
name = cedilla;
pos = (245,0);
},
{
name = top;
pos = (310,700);
}
);
layerId = m01;
shapes = (
{
closed = 1;
nodes = (
(10,320,l),
(424,320,l),
(424,300,o),
(425,300,o),
(405,300,cs),
(10,300,l),
(10,0,l),
(365,0,ls),
(610,0,o),
(610,0,o),
(610,245,cs),
(610,500,l),
(215,500,ls),
(195,500,o),
(196,500,o),
(196,520,c),
(610,520,l),
(610,700,l),
(10,700,l)
);
}
);
width = 620;
}
);
unicode = 83;
},
{
glyphname = Germandbls;
layers = (
{
layerId = m01;
shapes = (
{
closed = 1;
nodes = (
(310,0,l),
(310,299,l),
(330,299,l),
(330,0,l),
(630,0,l),
(630,382,l),
(620,382,l),
(620,455,ls),
(620,700,o),
(620,700,o),
(375,700,cs),
(10,700,l),
(10,0,l)
);
},
{
closed = 1;
nodes = (
(310,600,l),
(330,600,o),
(330,600,o),
(330,580,cs),
(330,382,l),
(310,382,l)
);
}
);
width = 640;
}
);
unicode = 7838;
},
{
glyphname = T;
layers = (
{
anchors = (
{
name = bottom;
pos = (290,0);
},
{
name = center;
pos = (290,350);
},
{
name = top;
pos = (290,700);
}
);
layerId = m01;
shapes = (
{
closed = 1;
nodes = (
(440,100,l),
(570,100,l),
(570,700,l),
(10,700,l),
(10,100,l),
(140,100,l),
(140,0,l),
(440,0,l)
);
}
);
width = 580;
}
);
unicode = 84;
},
{
glyphname = U;
layers = (
{
anchors = (
{
name = bottom;
pos = (320,0);
},
{
name = ogonek;
pos = (630,0);
},
{
name = top;
pos = (320,700);
},
{
name = topright;
pos = (620,700);
}
);
layerId = m01;
shapes = (
{
closed = 1;
nodes = (
(630,700,l),
(330,700,l),
(330,300,l),
(320,300,ls),
(310,301,o),
(310,304,o),
(310,320,cs),
(310,700,l),
(10,700,l),
(10,245,ls),
(10,0,o),
(10,0,o),
(255,0,cs),
(630,0,l)
);
}
);
width = 640;
}
);
unicode = 85;
},
{
glyphname = V;
layers = (
{
layerId = m01;
shapes = (
{
closed = 1;
nodes = (
(385,0,ls),
(630,0,o),
(630,0,o),
(630,245,cs),
(630,700,l),
(330,700,l),
(330,300,l),
(320,300,ls),
(310,301,o),
(310,304,o),
(310,320,cs),
(310,700,l),
(10,700,l),
(10,245,ls),
(10,0,o),
(10,0,o),
(255,0,cs)
);
}
);
width = 640;
}
);
unicode = 86;
},
{
glyphname = W;
layers = (
{
anchors = (
{
name = bottom;
pos = (480,0);
},
{
name = top;
pos = (480,700);
}
);
layerId = m01;
shapes = (
{
closed = 1;
nodes = (
(950,0,l),
(950,700,l),
(650,700,l),
(650,300,l),
(630,300,l),
(630,700,l),
(330,700,l),
(330,300,l),
(310,300,o),
(310,300,o),
(310,320,cs),
(310,700,l),
(10,700,l),
(10,245,ls),
(10,0,o),
(10,0,o),
(255,0,cs)
);
}
);
width = 960;
}
);
unicode = 87;
},
{
glyphname = X;
layers = (
{
layerId = m01;
shapes = (
{
closed = 1;
nodes = (
(310,0,l),
(310,300,l),
(330,300,o),
(330,300,o),
(330,280,cs),
(330,0,l),
(630,0,l),
(630,300,l),
(480,300,l),
(480,319,o),
(480,320,o),
(500,320,cs),
(630,320,l),
(630,355,ls),
(630,700,o),
(630,700,o),
(385,700,cs),
(330,700,l),
(330,500,l),
(310,500,o),
(310,500,o),
(310,520,cs),
(310,700,l),
(10,700,l),
(10,320,l),
(170,320,l),
(170,301,o),
(170,300,o),
(150,300,cs),
(10,300,l),
(10,245,ls),
(10,0,o),
(10,0,o),
(255,0,cs)
);
}
);
width = 640;
}
);
unicode = 88;
},
{
glyphname = Y;
layers = (
{
anchors = (
{
name = bottom;
pos = (320,0);
},
{
name = top;
pos = (320,700);
},
{
name = topleft;
pos = (20,700);
}
);
layerId = m01;
shapes = (
{
closed = 1;
nodes = (
(630,700,l),
(330,700,l),
(330,400,l),
(320,400,ls),
(310,401,o),
(310,404,o),
(310,420,cs),
(310,700,l),
(10,700,l),
(10,345,ls),
(10,100,o),
(10,100,o),
(255,100,cs),
(320,100,l),
(320,80,o),
(320,80,o),
(300,80,cs),
(10,80,l),
(10,0,l),
(428,0,ls),
(630,1,o),
(630,15,o),
(630,245,cs)
);
}
);
width = 640;
}
);
unicode = 89;
},
{
glyphname = Z;
layers = (
{
anchors = (
{
name = bottom;
pos = (310,0);
},
{
name = center;
pos = (310,350);
},
{
name = top;
pos = (310,700);
}
);
layerId = m01;
shapes = (
{
closed = 1;
nodes = (
(610,0,l),
(610,300,l),
(215,300,ls),
(195,300,o),
(196,300,o),
(196,320,c),
(610,320,l),
(610,455,ls),
(610,700,o),
(610,700,o),
(365,700,cs),
(10,700,l),
(10,520,l),
(405,520,ls),
(425,520,o),
(424,520,o),
(424,500,c),
(10,500,l),
(10,245,ls),
(10,0,o),
(10,0,o),
(255,0,cs)
);
}
);
width = 620;
}
);
unicode = 90;
},
{
glyphname = a;
layers = (
{
anchors = (
{
name = bottom;
pos = (320,0);
},
{
name = ogonek;
pos = (630,0);
},
{
name = top;
pos = (320,600);
}
);
layerId = m01;
shapes = (
{
closed = 1;
nodes = (
(255,600,ls),
(10,600,o),
(10,600,o),
(10,355,cs),
(10,245,ls),
(10,0,o),
(10,0,o),
(255,0,cs),
(310,0,l),
(310,43,l),
(330,43,l),
(330,0,l),
(630,0,l),
(630,600,l)
);
},
{
closed = 1;
nodes = (
(310,380,ls),
(310,400,o),
(310,400,o),
(330,400,c),
(330,300,l),
(310,300,l)
);
}
);
width = 640;
}
);
unicode = 97;
},
{
glyphname = ae;
layers = (
{
anchors = (
{
name = bottom;
pos = (480,0);
},
{
name = top;
pos = (480,600);
}
);
layerId = m01;
shapes = (
{
closed = 1;
nodes = (
(255,600,ls),
(10,600,o),
(10,600,o),
(10,355,cs),
(10,245,ls),
(10,0,o),
(10,0,o),
(255,0,cs),
(310,0,l),
(310,43,l),
(330,43,l),
(330,0,l),
(950,0,l),
(950,100,l),
(630,100,l),
(630,120,l),
(950,120,l),
(950,355,ls),
(950,600,o),
(950,600,o),
(705,600,cs)
);
},
{
closed = 1;
nodes = (
(310,380,ls),
(310,400,o),
(310,400,o),
(330,400,c),
(330,300,l),
(310,300,l)
);
},
{
closed = 1;
nodes = (
(630,400,l),
(650,400,o),
(650,400,o),
(650,380,cs),
(650,300,l),
(630,300,l)
);
}
);
width = 960;
}
);
unicode = 230;
},
{
glyphname = c;
layers = (
{
anchors = (
{
name = bottom;
pos = (320,0);
},
{
name = top;
pos = (320,600);
}
);
layerId = m01;
shapes = (
{
closed = 1;
nodes = (
(255,600,ls),
(10,600,o),
(10,600,o),
(10,355,cs),
(10,245,ls),
(10,0,o),
(10,0,o),
(255,0,cs),
(385,0,ls),
(630,0,o),
(630,0,o),
(630,245,cs),
(630,300,l),
(330,300,l),
(330,210,l),
(310,210,o),
(310,210,o),
(310,230,cs),
(310,400,l),
(330,400,o),
(330,400,o),
(330,380,cs),
(330,320,l),
(630,320,l),
(630,355,ls),
(630,600,o),
(630,600,o),
(385,600,cs)
);
}
);
width = 630;
}
);
unicode = 99;
},
{
glyphname = d;
layers = (
{
anchors = (
{
name = bottom;
pos = (320,0);
},
{
name = center;
pos = (320,300);
},
{
name = top;
pos = (320,700);
},
{
name = topright;
pos = (620,800);
}
);
layerId = m01;
shapes = (
{
closed = 1;
nodes = (
(630,0,l),
(630,700,l),
(330,700,l),
(330,600,l),
(255,600,ls),
(10,600,o),
(10,600,o),
(10,355,cs),
(10,245,ls),
(10,0,o),
(10,0,o),
(255,0,cs)
);
},
{
closed = 1;
nodes = (
(310,380,ls),
(310,400,o),
(310,400,o),
(330,400,c),
(330,300,l),
(310,300,l)
);
}
);
width = 640;
}
);
unicode = 100;
},
{
glyphname = eth;
layers = (
{
anchors = (
{
name = bottom;
pos = (320,0);
},
{
name = center;
pos = (320,300);
},
{
name = top;
pos = (320,700);
},
{
name = topright;
pos = (620,800);
}
);
layerId = m01;
shapes = (
{
closed = 1;
nodes = (
(385,0,ls),
(630,0,o),
(630,0,o),
(630,245,cs),
(630,455,ls),
(630,700,o),
(630,700,o),
(385,700,cs),
(310,700,l),
(310,620,l),
(330,620,l),
(330,600,l),
(255,600,ls),
(10,600,o),
(10,600,o),
(10,355,cs),
(10,245,ls),
(10,0,o),
(10,0,o),
(255,0,cs)
);
},
{
closed = 1;
nodes = (
(310,380,ls),
(310,400,o),
(310,400,o),
(330,400,c),
(330,300,l),
(310,300,l)
);
}
);
width = 640;
}
);
unicode = 240;
},
{
glyphname = dcroat;
layers = (
{
layerId = m01;
shapes = (
{
ref = d;
},
{
closed = 1;
nodes = (
(650,620,l),
(650,700,l),
(310,700,l),
(310,620,l)
);
}
);
width = 660;
}
);
unicode = 273;
},
{
glyphname = e;
layers = (
{
anchors = (
{
name = bottom;
pos = (320,0);
},
{
name = ogonek;
pos = (630,0);
},
{
name = top;
pos = (320,600);
}
);
layerId = m01;
shapes = (
{
closed = 1;
nodes = (
(10,245,ls),
(10,37,o),
(10,6,o),
(160,1,c),
(630,0,l),
(630,100,l),
(310,100,l),
(310,120,l),
(630,120,l),
(630,355,ls),
(630,600,o),
(630,600,o),
(385,600,cs),
(255,600,ls),
(10,600,o),
(10,600,o),
(10,355,cs)
);
},
{
closed = 1;
nodes = (
(330,400,o),
(330,400,o),
(330,380,cs),
(330,300,l),
(310,300,l),
(310,400,l)
);
}
);
width = 640;
}
);
unicode = 101;
},
{
glyphname = f;
layers = (
{
layerId = m01;
shapes = (
{
closed = 1;
nodes = (
(490,700,l),
(204,700,ls),
(10,700,o),
(10,682,o),
(10,455,cs),
(10,0,l),
(310,0,l),
(310,100,l),
(490,100,l),
(490,280,l),
(310,280,l),
(310,296,l),
(312,300,o),
(316,300,o),
(328,300,cs),
(490,300,l)
);
}
);
width = 500;
}
);
unicode = 102;
},
{
glyphname = g;
layers = (
{
anchors = (
{
name = bottom;
pos = (320,-100);
},
{
name = top;
pos = (320,600);
}
);
layerId = m01;
shapes = (
{
closed = 1;
nodes = (
(630,600,l),
(255,600,ls),
(10,600,o),
(10,600,o),
(10,355,cs),
(10,245,ls),
(10,0,o),
(10,0,o),
(255,0,cs),
(320,0,l),
(320,-20,o),
(320,-20,o),
(300,-20,cs),
(10,-20,l),
(10,-100,l),
(428,-100,ls),
(630,-99,o),
(630,-85,o),
(630,145,cs)
);
},
{
closed = 1;
nodes = (
(310,400,l),
(330,400,l),
(330,300,l),
(320,300,ls),
(310,301,o),
(310,304,o),
(310,320,cs)
);
}
);
width = 640;
}
);
unicode = 103;
},
{
glyphname = h;
layers = (
{
layerId = m01;
shapes = (
{
closed = 1;
nodes = (
(10,0,l),
(310,0,l),
(310,400,l),
(320,400,ls),
(330,400,o),
(330,396,o),
(330,380,cs),
(330,0,l),
(630,0,l),
(630,355,ls),
(630,600,o),
(630,600,o),
(385,600,cs),
(310,600,l),
(310,700,l),
(10,700,l)
);
}
);
width = 640;
}
);
unicode = 104;
},
{
glyphname = hbar;
layers = (
{
layerId = m01;
shapes = (
{
pos = (20,0);
ref = h;
},
{
closed = 1;
nodes = (
(360,620,l),
(360,700,l),
(10,700,l),
(10,620,l)
);
}
);
width = 660;
}
);
unicode = 295;
},
{
glyphname = i;
layers = (
{
anchors = (
{
name = bottom;
pos = (161,0);
},
{
name = ogonek;
pos = (311,0);
},
{
name = top;
pos = (162,700);
}
);
background = {
shapes = (
{
closed = 0;
nodes = (
(107,620,l)
);
},
{
closed = 0;
nodes = (
(15,710,ls)
);
}
);
};
layerId = m01;
shapes = (
{
closed = 1;
nodes = (
(311,600,l),
(11,600,l),
(11,245,ls),
(11,0,o),
(10,0,o),
(256,0,cs),
(311,0,l)
);
},
{
closed = 1;
nodes = (
(10,620,l),
(310,620,l),
(310,700,l),
(10,700,l)
);
}
);
width = 321;
}
);
unicode = 105;
},
{
glyphname = idotless;
layers = (
{
anchors = (
{
name = bottom;
pos = (160,0);
},
{
name = top;
pos = (161,600);
}
);
layerId = m01;
shapes = (
{
closed = 1;
nodes = (
(310,600,l),
(10,600,l),
(10,245,ls),
(10,0,o),
(9,0,o),
(255,0,cs),
(310,0,l)
);
}
);
width = 320;
}
);
unicode = 305;
},
{
glyphname = j;
layers = (
{
layerId = m01;
shapes = (
{
closed = 1;
nodes = (
(65,-100,ls),
(310,-100,o),
(310,-100,o),
(310,145,cs),
(310,600,l),
(10,600,l),
(10,-100,l)
);
},
{
closed = 1;
nodes = (
(10,620,l),
(310,620,l),
(310,700,l),
(10,700,l)
);
}
);
width = 320;
}
);
unicode = 106;
},
{
glyphname = jdotless;
layers = (
{
anchors = (
{
name = bottom;
pos = (160,-100);
},
{
name = top;
pos = (160,600);
}
);
layerId = m01;
shapes = (
{
closed = 1;
nodes = (
(65,-100,ls),
(310,-100,o),
(310,-100,o),
(310,145,cs),
(310,600,l),
(10,600,l),
(10,-100,l)
);
}
);
width = 320;
}
);
unicode = 567;
},
{
glyphname = k;
layers = (
{
anchors = (
{
name = bottom;
pos = (320,0);
},
{
name = top;
pos = (320,800);
}
);
layerId = m01;
shapes = (
{
closed = 1;
nodes = (
(310,0,l),
(310,105,ls),
(310,125,o),
(310,125,o),
(330,125,c),
(330,0,l),
(630,0,l),
(630,105,l),
(450,105,ls),
(430,105,o),
(430,105,o),
(430,125,c),
(630,125,l),
(630,599,l),
(330,599,l),
(330,320,ls),
(330,300,o),
(330,300,o),
(310,300,c),
(310,455,ls),
(310,700,o),
(310,700,o),
(65,700,cs),
(10,700,l),
(10,0,l)
);
}
);
width = 640;
}
);
unicode = 107;
},
{
glyphname = l;
layers = (
{
anchors = (
{
name = bottom;
pos = (160,0);
},
{
name = center;
pos = (160,400);
},
{
name = top;
pos = (160,700);
}
);
layerId = m01;
shapes = (
{
closed = 1;
nodes = (
(310,700,l),
(10,700,l),
(10,245,ls),
(10,0,o),
(10,0,o),
(255,0,cs),
(310,0,l)
);
}
);
width = 320;
}
);
unicode = 108;
},
{
glyphname = lslash;
layers = (
{
layerId = m01;
shapes = (
{
pos = (20,0);
ref = I;
},
{
closed = 1;
nodes = (
(350,360,l),
(350,440,l),
(10,340,l),
(10,260,l)
);
}
);
width = 360;
}
);
unicode = 322;
},
{
glyphname = m;
layers = (
{
layerId = m01;
shapes = (
{
closed = 1;
nodes = (
(330,400,o),
(330,400,o),
(330,380,cs),
(330,0,l),
(630,0,l),
(630,400,l),
(650,400,o),
(650,400,o),
(650,380,cs),
(650,0,l),
(950,0,l),
(950,355,ls),
(950,600,o),
(950,600,o),
(705,600,cs),
(10,600,l),
(10,0,l),
(310,0,l),
(310,400,l)
);
}
);
width = 960;
}
);
unicode = 109;
},
{
glyphname = n;
layers = (
{
anchors = (
{
name = bottom;
pos = (320,0);
},
{
name = top;
pos = (320,600);
}
);
layerId = m01;
shapes = (
{
closed = 1;
nodes = (
(10,0,l),
(310,0,l),
(310,400,l),
(330,400,o),
(330,400,o),
(330,380,cs),
(330,0,l),
(630,0,l),
(630,355,ls),
(630,600,o),
(630,600,o),
(385,600,cs),
(10,600,l)
);
}
);
width = 640;
}
);
unicode = 110;
},
{
glyphname = eng;
layers = (
{
layerId = m01;
shapes = (
{
closed = 1;
nodes = (
(385,-100,ls),
(630,-100,o),
(630,-100,o),
(630,145,cs),
(630,355,ls),
(630,600,o),
(630,600,o),
(385,600,cs),
(10,600,l),
(10,0,l),
(310,0,l),
(310,400,l),
(330,400,o),
(330,400,o),
(330,380,cs),
(330,0,l),
(320,0,l),
(320,-100,l)
);
}
);
width = 640;
}
);
unicode = 331;
},
{
glyphname = o;
layers = (
{
anchors = (
{
name = bottom;
pos = (320,0);
},
{
name = center;
pos = (320,300);
},
{
name = ogonek;
pos = (576,10);
},
{
name = top;
pos = (320,600);
},
{
name = topright;
pos = (620,600);
}
);
layerId = m01;
shapes = (
{
closed = 1;
nodes = (
(255,600,ls),
(10,600,o),
(10,600,o),
(10,355,cs),
(10,245,ls),
(10,0,o),
(10,0,o),
(255,0,cs),
(385,0,ls),
(630,0,o),
(630,0,o),
(630,245,cs),
(630,355,ls),
(630,600,o),
(630,600,o),
(385,600,cs)
);
},
{
closed = 1;
nodes = (
(330,400,o),
(330,400,o),
(330,380,cs),
(330,300,l),
(310,300,o),
(310,300,o),
(310,320,cs),
(310,400,l)
);
}
);
width = 640;
}
);
unicode = 111;
},
{
glyphname = oslash;
layers = (
{
layerId = m01;
shapes = (
{
locked = 1;
pos = (19,0);
ref = o;
},
{
closed = 1;
nodes = (
(188,254,l),
(10,202,l),
(10,122,l),
(188,174,l)
);
},
{
closed = 1;
nodes = (
(507,277,l),
(669,325,l),
(669,405,l),
(507,357,l)
);
}
);
width = 679;
}
);
unicode = 248;
},
{
glyphname = thorn;
layers = (
{
layerId = m01;
shapes = (
{
closed = 1;
nodes = (
(310,-100,l),
(310,0,l),
(385,0,ls),
(630,0,o),
(630,0,o),
(630,245,cs),
(630,355,ls),
(630,600,o),
(630,600,o),
(385,600,cs),
(310,600,l),
(310,700,l),
(10,700,l),
(10,-100,l)
);
},
{
closed = 1;
nodes = (
(310,400,l),
(330,400,o),
(330,400,o),
(330,380,cs),
(330,300,l),
(310,300,l)
);
}
);
width = 640;
}
);
unicode = 254;
},
{
glyphname = q;
layers = (
{
layerId = m01;
shapes = (
{
closed = 1;
nodes = (
(630,-100,l),
(630,600,l),
(255,600,ls),
(10,600,o),
(10,600,o),
(10,355,cs),
(10,245,ls),
(10,0,o),
(10,0,o),
(255,0,cs),
(330,0,l),
(330,-100,l)
);
},
{
closed = 1;
nodes = (
(310,300,l),
(310,380,ls),
(310,400,o),
(310,400,o),
(330,400,c),
(330,300,l)
);
}
);
width = 640;
}
);
unicode = 113;
},
{
glyphname = r;
layers = (
{
anchors = (
{
name = bottom;
pos = (320,0);
},
{
name = top;
pos = (320,600);
}
);
layerId = m01;
shapes = (
{
closed = 1;
nodes = (
(10,0,l),
(310,0,l),
(310,300,l),
(330,300,o),
(330,300,o),
(330,280,cs),
(330,120,l),
(630,120,l),
(630,355,ls),
(630,600,o),
(630,600,o),
(385,600,cs),
(10,600,l)
);
}
);
width = 640;
}
);
unicode = 114;
},
{
glyphname = s;
layers = (
{
anchors = (
{
name = bottom;
pos = (290,0);
},
{
name = celida;
pos = (187,0);
},
{
name = top;
pos = (290,600);
}
);
layerId = m01;
shapes = (
{
closed = 1;
nodes = (
(10,300,l),
(384,300,l),
(384,280,o),
(385,280,o),
(365,280,cs),
(10,280,l),
(10,0,l),
(325,0,ls),
(570,0,o),
(570,0,o),
(570,245,cs),
(570,400,l),
(215,400,ls),
(195,400,o),
(196,400,o),
(196,420,c),
(570,420,l),
(570,600,l),
(10,600,l)
);
}
);
width = 580;
}
);
unicode = 115;
},
{
glyphname = germandbls;
layers = (
{
layerId = m01;
shapes = (
{
closed = 1;
nodes = (
(310,0,l),
(310,298,l),
(330,298,l),
(330,0,l),
(385,0,ls),
(630,0,o),
(630,0,o),
(630,245,cs),
(630,382,l),
(620,382,l),
(620,455,ls),
(620,700,o),
(620,700,o),
(375,700,cs),
(10,700,l),
(10,0,l)
);
},
{
closed = 1;
nodes = (
(310,500,l),
(330,500,o),
(330,500,o),
(330,480,cs),
(330,400,l),
(310,400,l)
);
}
);
width = 640;
}
);
unicode = 223;
},
{
glyphname = t;
layers = (
{
anchors = (
{
name = bottom;
pos = (200,0);
},
{
name = center;
pos = (200,300);
},
{
name = top;
pos = (200,700);
},
{
name = topright;
pos = (380,800);
}
);
layerId = m01;
shapes = (
{
closed = 1;
nodes = (
(410,0,l),
(410,280,l),
(328,280,ls),
(316,280,o),
(312,280,o),
(310,284,cs),
(309,287,o),
(309,292,o),
(309,300,c),
(410,300,l),
(410,600,l),
(310,600,l),
(310,700,l),
(10,700,l),
(10,245,ls),
(10,0,o),
(10,0,o),
(255,0,cs)
);
}
);
width = 420;
}
);
unicode = 116;
},
{
glyphname = u;
layers = (
{
anchors = (
{
name = bottom;
pos = (320,0);
},
{
name = ogonek;
pos = (630,0);
},
{
name = top;
pos = (320,600);
},
{
name = topright;
pos = (620,600);
}
);
layerId = m01;
shapes = (
{
closed = 1;
nodes = (
(630,600,l),
(330,600,l),
(330,300,l),
(320,300,ls),
(310,301,o),
(310,304,o),
(310,320,cs),
(310,600,l),
(10,600,l),
(10,245,ls),
(10,0,o),
(10,0,o),
(255,0,cs),
(630,0,l)
);
}
);
width = 640;
}
);
unicode = 117;
},
{
glyphname = v;
layers = (
{
layerId = m01;
shapes = (
{
closed = 1;
nodes = (
(385,0,ls),
(630,0,o),
(630,0,o),
(630,245,cs),
(630,600,l),
(330,600,l),
(330,300,l),
(320,300,ls),
(310,301,o),
(310,304,o),
(310,320,cs),
(310,600,l),
(10,600,l),
(10,245,ls),
(10,0,o),
(10,0,o),
(255,0,cs)
);
}
);
width = 640;
}
);
unicode = 118;
},
{
glyphname = w;
layers = (
{
anchors = (
{
name = bottom;
pos = (480,0);
},
{
name = top;
pos = (480,600);
}
);
layerId = m01;
shapes = (
{
closed = 1;
nodes = (
(630,300,o),
(630,300,o),
(630,320,cs),
(630,600,l),
(330,600,l),
(330,300,l),
(310,300,o),
(310,300,o),
(310,320,cs),
(310,600,l),
(10,600,l),
(10,245,ls),
(10,0,o),
(10,0,o),
(255,0,cs),
(950,0,l),
(950,600,l),
(650,600,l),
(650,300,l)
);
}
);
width = 960;
}
);
unicode = 119;
},
{
glyphname = x;
layers = (
{
layerId = m01;
shapes = (
{
closed = 1;
nodes = (
(310,0,l),
(310,300,l),
(330,300,o),
(330,300,o),
(330,280,cs),
(330,0,l),
(630,0,l),
(630,300,l),
(480,300,l),
(480,319,o),
(480,320,o),
(500,320,cs),
(630,320,l),
(630,355,ls),
(630,600,o),
(630,600,o),
(385,600,cs),
(330,600,l),
(330,400,l),
(310,400,o),
(310,400,o),
(310,420,cs),
(310,600,l),
(10,600,l),
(10,320,l),
(170,320,l),
(170,301,o),
(170,300,o),
(150,300,cs),
(10,300,l),
(10,245,ls),
(10,0,o),
(10,0,o),
(255,0,cs)
);
}
);
width = 640;
}
);
unicode = 120;
},
{
glyphname = y;
layers = (
{
anchors = (
{
name = bottom;
pos = (320,0);
},
{
name = top;
pos = (320,600);
}
);
layerId = m01;
shapes = (
{
closed = 1;
nodes = (
(630,600,l),
(330,600,l),
(330,300,l),
(320,300,ls),
(310,301,o),
(310,304,o),
(310,320,cs),
(310,600,l),
(10,600,l),
(10,245,ls),
(10,0,o),
(10,0,o),
(255,0,cs),
(320,0,l),
(320,-20,o),
(320,-20,o),
(300,-20,cs),
(10,-20,l),
(10,-100,l),
(428,-100,ls),
(630,-99,o),
(630,-85,o),
(630,145,cs)
);
}
);
width = 640;
}
);
unicode = 121;
},
{
glyphname = z;
layers = (
{
anchors = (
{
name = bottom;
pos = (310,0);
},
{
name = center;
pos = (310,300);
},
{
name = top;
pos = (310,600);
}
);
layerId = m01;
shapes = (
{
closed = 1;
nodes = (
(610,0,l),
(610,280,l),
(215,280,ls),
(195,280,o),
(196,280,o),
(196,300,c),
(610,300,l),
(610,355,ls),
(610,600,o),
(610,600,o),
(365,600,cs),
(10,600,l),
(10,420,l),
(424,420,l),
(424,400,o),
(425,400,o),
(405,400,cs),
(10,400,l),
(10,245,ls),
(10,0,o),
(10,0,o),
(255,0,cs)
);
}
);
width = 620;
}
);
unicode = 122;
},
{
glyphname = a.sc;
layers = (
{
anchors = (
{
name = bottom;
pos = (320,0);
},
{
name = ogonek;
pos = (576,10);
},
{
name = top;
pos = (320,600);
}
);
layerId = m01;
shapes = (
{
closed = 1;
nodes = (
(255,600,ls),
(10,600,o),
(10,600,o),
(10,355,cs),
(10,0,l),
(310,0,l),
(310,300,l),
(330,300,l),
(330,0,l),
(630,0,l),
(630,600,l)
);
},
{
closed = 1;
nodes = (
(310,480,ls),
(310,500,o),
(310,500,o),
(330,500,c),
(330,400,l),
(310,400,l)
);
}
);
width = 640;
}
);
},
{
glyphname = b.sc;
layers = (
{
anchors = (
{
name = bottom;
pos = (320,0);
},
{
name = center;
pos = (160,150);
},
{
name = top;
pos = (320,600);
}
);
layerId = m01;
shapes = (
{
closed = 1;
nodes = (
(385,0,ls),
(630,0,o),
(630,0,o),
(630,245,cs),
(630,300,l),
(620,300,l),
(620,355,ls),
(620,600,o),
(620,600,o),
(375,600,cs),
(10,600,l),
(10,0,l)
);
},
{
closed = 1;
nodes = (
(310,500,l),
(330,500,o),
(330,500,o),
(330,480,cs),
(330,400,l),
(310,400,l)
);
},
{
closed = 1;
nodes = (
(330,125,l),
(310,125,o),
(310,125,o),
(310,145,cs),
(310,300,l),
(330,300,l)
);
}
);
width = 640;
}
);
},
{
glyphname = c.sc;
layers = (
{
anchors = (
{
name = bottom;
pos = (320,0);
},
{
name = cedilla;
pos = (255,0);
},
{
name = top;
pos = (320,600);
}
);
layerId = m01;
shapes = (
{
closed = 1;
nodes = (
(255,600,ls),
(10,600,o),
(10,600,o),
(10,355,cs),
(10,245,ls),
(10,0,o),
(10,0,o),
(255,0,cs),
(385,0,ls),
(630,0,o),
(630,0,o),
(630,245,cs),
(630,300,l),
(330,300,l),
(330,210,l),
(310,210,o),
(310,210,o),
(310,230,cs),
(310,400,l),
(330,400,o),
(330,400,o),
(330,380,cs),
(330,320,l),
(630,320,l),
(630,355,ls),
(630,600,o),
(630,600,o),
(385,600,cs)
);
}
);
width = 640;
}
);
},
{
glyphname = d.sc;
layers = (
{
anchors = (
{
name = bottom;
pos = (320,0);
},
{
name = center;
pos = (160,300);
},
{
name = top;
pos = (320,600);
}
);
layerId = m01;
shapes = (
{
closed = 1;
nodes = (
(385,0,ls),
(630,0,o),
(630,0,o),
(630,245,cs),
(630,355,ls),
(630,600,o),
(630,600,o),
(385,600,cs),
(10,600,l),
(10,0,l)
);
},
{
closed = 1;
nodes = (
(330,230,ls),
(330,210,o),
(330,210,o),
(310,210,c),
(310,400,l),
(330,400,o),
(330,400,o),
(330,380,cs)
);
}
);
width = 640;
}
);
},
{
glyphname = dcroat.sc;
layers = (
{
layerId = m01;
shapes = (
{
pos = (20,0);
ref = d.sc;
},
{
closed = 1;
nodes = (
(10,200,l),
(150,200,l),
(150,400,l),
(10,400,l)
);
}
);
width = 660;
}
);
},
{
glyphname = e.sc;
layers = (
{
anchors = (
{
name = bottom;
pos = (320,0);
},
{
name = ogonek;
pos = (576,10);
},
{
name = top;
pos = (320,600);
},
{
name = topleft;
pos = (20,600);
}
);
layerId = m01;
shapes = (
{
closed = 1;
nodes = (
(630,200,l),
(346,200,l),
(346,220,o),
(345,220,o),
(365,220,cs),
(630,220,l),
(630,400,l),
(346,400,l),
(346,420,o),
(345,420,o),
(365,420,cs),
(630,420,l),
(630,600,l),
(255,600,ls),
(10,600,o),
(10,600,o),
(10,355,cs),
(10,0,l),
(630,0,l)
);
}
);
width = 640;
}
);
},
{
glyphname = f.sc;
layers = (
{
layerId = m01;
shapes = (
{
closed = 1;
nodes = (
(311,250,l),
(311,270,o),
(310,270,o),
(330,270,cs),
(510,270,l),
(510,600,l),
(255,600,ls),
(10,600,o),
(10,600,o),
(10,355,cs),
(10,0,l),
(310,0,l),
(310,100,l),
(510,100,l),
(510,250,l)
);
}
);
width = 520;
}
);
},
{
glyphname = g.sc;
layers = (
{
anchors = (
{
name = bottom;
pos = (320,0);
},
{
name = top;
pos = (320,600);
}
);
layerId = m01;
shapes = (
{
closed = 1;
nodes = (
(255,600,ls),
(10,600,o),
(10,600,o),
(10,355,cs),
(10,245,ls),
(10,0,o),
(10,0,o),
(255,0,cs),
(630,0,l),
(630,380,l),
(330,380,l),
(330,210,l),
(310,210,o),
(310,210,o),
(310,230,cs),
(310,400,l),
(630,400,l),
(630,619,o),
(621,600,o),
(385,600,cs)
);
}
);
width = 640;
}
);
},
{
glyphname = h.sc;
layers = (
{
anchors = (
{
name = bottom;
pos = (320,0);
},
{
name = center;
pos = (320,450);
},
{
name = top;
pos = (320,600);
},
{
name = topleft;
pos = (20,600);
}
);
layerId = m01;
shapes = (
{
closed = 1;
nodes = (
(10,0,l),
(310,0,l),
(310,207,l),
(320,207,ls),
(330,206,o),
(330,203,o),
(330,187,cs),
(330,0,l),
(630,0,l),
(630,355,ls),
(630,600,o),
(630,600,o),
(385,600,cs),
(330,600,l),
(330,360,l),
(320,360,ls),
(310,361,o),
(310,364,o),
(310,380,cs),
(310,600,l),
(10,600,l)
);
}
);
width = 640;
}
);
},
{
glyphname = i.sc;
layers = (
{
anchors = (
{
name = bottom;
pos = (160,0);
},
{
name = ogonek;
pos = (288,10);
},
{
name = top;
pos = (160,600);
}
);
layerId = m01;
shapes = (
{
closed = 1;
nodes = (
(10,600,l),
(310,600,l),
(310,0,l),
(10,0,l)
);
}
);
width = 320;
}
);
},
{
glyphname = j.sc;
layers = (
{
anchors = (
{
name = bottom;
pos = (160,0);
},
{
name = top;
pos = (160,600);
}
);
layerId = m01;
shapes = (
{
closed = 1;
nodes = (
(65,0,ls),
(310,0,o),
(310,0,o),
(310,245,cs),
(310,600,l),
(10,600,l),
(10,0,l)
);
}
);
width = 320;
}
);
},
{
glyphname = k.sc;
layers = (
{
anchors = (
{
name = bottom;
pos = (320,0);
},
{
name = top;
pos = (320,600);
}
);
layerId = m01;
shapes = (
{
closed = 1;
nodes = (
(310,0,l),
(310,190,ls),
(310,210,o),
(310,210,o),
(330,210,c),
(330,0,l),
(630,0,l),
(630,190,l),
(450,190,ls),
(430,190,o),
(430,190,o),
(430,210,c),
(630,210,l),
(630,600,l),
(330,600,l),
(330,380,ls),
(330,360,o),
(330,360,o),
(310,360,c),
(310,600,l),
(10,600,l),
(10,0,l)
);
}
);
width = 640;
}
);
},
{
glyphname = l.sc;
layers = (
{
anchors = (
{
name = bottom;
pos = (210,0);
},
{
name = center;
pos = (210,300);
},
{
name = top;
pos = (210,600);
},
{
name = topright;
pos = (400,600);
}
);
layerId = m01;
shapes = (
{
closed = 1;
nodes = (
(410,0,l),
(410,400,l),
(310,400,l),
(310,600,l),
(10,600,l),
(10,245,ls),
(10,0,o),
(10,0,o),
(255,0,cs)
);
}
);
width = 420;
}
);
},
{
glyphname = lslash.sc;
layers = (
{
layerId = m01;
shapes = (
{
pos = (20,0);
ref = l.sc;
},
{
closed = 1;
nodes = (
(350,520,l),
(350,600,l),
(10,500,l),
(10,420,l)
);
}
);
width = 440;
}
);
},
{
glyphname = m.sc;
layers = (
{
layerId = m01;
shapes = (
{
closed = 1;
nodes = (
(330,400,o),
(330,400,o),
(330,380,cs),
(330,0,l),
(630,0,l),
(630,400,l),
(650,400,o),
(650,400,o),
(650,380,cs),
(650,0,l),
(950,0,l),
(950,355,ls),
(950,600,o),
(950,600,o),
(705,600,cs),
(10,600,l),
(10,0,l),
(310,0,l),
(310,400,l)
);
}
);
width = 960;
}
);
},
{
glyphname = n.sc;
layers = (
{
anchors = (
{
name = bottom;
pos = (320,0);
},
{
name = top;
pos = (320,600);
}
);
layerId = m01;
shapes = (
{
closed = 1;
nodes = (
(10,0,l),
(310,0,l),
(310,400,l),
(320,400,ls),
(330,399,o),
(330,396,o),
(330,380,cs),
(330,0,l),
(630,0,l),
(630,355,ls),
(630,600,o),
(630,600,o),
(385,600,cs),
(10,600,l)
);
}
);
width = 640;
}
);
},
{
glyphname = o.sc;
layers = (
{
anchors = (
{
name = bottom;
pos = (320,0);
},
{
name = center;
pos = (320,300);
},
{
name = ogonek;
pos = (576,10);
},
{
name = top;
pos = (320,600);
},
{
name = topleft;
pos = (20,600);
},
{
name = topright;
pos = (620,600);
}
);
layerId = m01;
shapes = (
{
closed = 1;
nodes = (
(255,600,ls),
(10,600,o),
(10,600,o),
(10,355,cs),
(10,245,ls),
(10,0,o),
(10,0,o),
(255,0,cs),
(385,0,ls),
(630,0,o),
(630,0,o),
(630,245,cs),
(630,355,ls),
(630,600,o),
(630,600,o),
(385,600,cs)
);
},
{
closed = 1;
nodes = (
(330,400,o),
(330,400,o),
(330,380,cs),
(330,210,l),
(310,210,o),
(310,210,o),
(310,230,cs),
(310,400,l)
);
}
);
width = 640;
}
);
},
{
glyphname = p.sc;
layers = (
{
layerId = m01;
shapes = (
{
closed = 1;
nodes = (
(310,400,l),
(330,400,o),
(330,400,o),
(330,380,cs),
(330,300,l),
(310,300,l)
);
},
{
closed = 1;
nodes = (
(310,100,l),
(385,100,ls),
(630,100,o),
(630,100,o),
(630,345,cs),
(630,355,ls),
(630,601,o),
(630,600,o),
(385,600,cs),
(10,600,l),
(10,0,l),
(310,0,l)
);
}
);
width = 640;
}
);
},
{
glyphname = thorn.sc;
layers = (
{
layerId = m01;
shapes = (
{
closed = 1;
nodes = (
(310,350,l),
(330,350,o),
(330,350,o),
(330,330,cs),
(330,250,l),
(310,250,l)
);
},
{
closed = 1;
nodes = (
(310,50,l),
(385,50,ls),
(630,50,o),
(630,50,o),
(630,295,cs),
(630,305,ls),
(630,551,o),
(630,550,o),
(385,550,cs),
(310,550,l),
(310,600,l),
(10,600,l),
(10,0,l),
(310,0,l)
);
}
);
width = 640;
}
);
},
{
glyphname = q.sc;
layers = (
{
layerId = m01;
shapes = (
{
closed = 1;
nodes = (
(255,600,ls),
(10,600,o),
(10,600,o),
(10,355,cs),
(10,245,ls),
(10,0,o),
(10,0,o),
(255,0,cs),
(640,0,l),
(640,300,l),
(630,300,l),
(630,355,ls),
(630,600,o),
(630,600,o),
(385,600,cs)
);
},
{
closed = 1;
nodes = (
(310,300,l),
(310,400,l),
(330,400,o),
(330,400,o),
(330,380,cs),
(330,300,l)
);
}
);
width = 650;
}
);
},
{
glyphname = r.sc;
layers = (
{
anchors = (
{
name = bottom;
pos = (320,0);
},
{
name = top;
pos = (320,600);
}
);
layerId = m01;
shapes = (
{
closed = 1;
nodes = (
(310,390,l),
(310,500,l),
(330,500,o),
(330,500,o),
(330,480,cs),
(330,390,l)
);
},
{
closed = 1;
nodes = (
(310,0,l),
(310,280,ls),
(310,300,o),
(310,300,o),
(330,300,c),
(330,0,l),
(630,0,l),
(630,300,l),
(500,300,ls),
(480,300,o),
(480,301,o),
(480,320,c),
(630,320,l),
(630,355,ls),
(630,600,o),
(630,600,o),
(385,600,cs),
(10,600,l),
(10,0,l)
);
}
);
width = 640;
}
);
},
{
glyphname = s.sc;
layers = (
{
anchors = (
{
name = bottom;
pos = (311,0);
},
{
name = cedilla;
pos = (239,0);
},
{
name = top;
pos = (311,600);
}
);
layerId = m01;
shapes = (
{
closed = 1;
nodes = (
(10,320,l),
(425,320,l),
(425,300,o),
(426,300,o),
(406,300,cs),
(10,300,l),
(10,0,l),
(365,0,ls),
(612,0,o),
(612,0,o),
(612,245,cs),
(612,400,l),
(216,400,ls),
(196,400,o),
(197,400,o),
(197,420,c),
(612,420,l),
(612,600,l),
(10,600,l)
);
}
);
width = 622;
}
);
},
{
glyphname = germandbls.sc;
layers = (
{
layerId = m01;
shapes = (
{
closed = 1;
nodes = (
(310,0,l),
(310,239,l),
(330,239,l),
(330,0,l),
(630,0,l),
(630,322,l),
(620,322,l),
(620,355,ls),
(620,600,o),
(620,600,o),
(375,600,cs),
(10,600,l),
(10,0,l)
);
},
{
closed = 1;
nodes = (
(310,500,l),
(330,500,o),
(330,500,o),
(330,480,cs),
(330,322,l),
(310,322,l)
);
}
);
width = 640;
}
);
},
{
glyphname = t.sc;
layers = (
{
anchors = (
{
name = bottom;
pos = (290,0);
},
{
name = center;
pos = (290,300);
},
{
name = top;
pos = (290,600);
}
);
layerId = m01;
shapes = (
{
closed = 1;
nodes = (
(440,100,l),
(570,100,l),
(570,600,l),
(10,600,l),
(10,100,l),
(140,100,l),
(140,0,l),
(440,0,l)
);
}
);
width = 580;
}
);
},
{
glyphname = u.sc;
layers = (
{
anchors = (
{
name = bottom;
pos = (320,0);
},
{
name = ogonek;
pos = (576,10);
},
{
name = top;
pos = (320,600);
},
{
name = topright;
pos = (620,600);
}
);
layerId = m01;
shapes = (
{
closed = 1;
nodes = (
(630,600,l),
(330,600,l),
(330,300,l),
(320,300,ls),
(310,301,o),
(310,304,o),
(310,320,cs),
(310,600,l),
(10,600,l),
(10,245,ls),
(10,0,o),
(10,0,o),
(255,0,cs),
(630,0,l)
);
}
);
width = 640;
}
);
},
{
glyphname = v.sc;
layers = (
{
anchors = (
{
name = bottom;
pos = (320,0);
},
{
name = top;
pos = (320,600);
}
);
layerId = m01;
shapes = (
{
closed = 1;
nodes = (
(385,0,ls),
(630,0,o),
(630,0,o),
(630,245,cs),
(630,600,l),
(330,600,l),
(330,300,l),
(320,300,ls),
(310,301,o),
(310,304,o),
(310,320,cs),
(310,600,l),
(10,600,l),
(10,245,ls),
(10,0,o),
(10,0,o),
(255,0,cs)
);
}
);
width = 640;
}
);
},
{
glyphname = w.sc;
layers = (
{
anchors = (
{
name = bottom;
pos = (480,0);
},
{
name = top;
pos = (480,600);
}
);
layerId = m01;
shapes = (
{
closed = 1;
nodes = (
(630,300,o),
(630,300,o),
(630,320,cs),
(630,600,l),
(330,600,l),
(330,300,l),
(310,300,o),
(310,300,o),
(310,320,cs),
(310,600,l),
(10,600,l),
(10,245,ls),
(10,0,o),
(10,0,o),
(255,0,cs),
(950,0,l),
(950,600,l),
(650,600,l),
(650,300,l)
);
}
);
width = 960;
}
);
},
{
glyphname = x.sc;
layers = (
{
anchors = (
{
name = bottom;
pos = (320,0);
},
{
name = top;
pos = (320,600);
}
);
layerId = m01;
shapes = (
{
closed = 1;
nodes = (
(310,0,l),
(310,200,l),
(330,200,o),
(330,200,o),
(330,180,cs),
(330,0,l),
(630,0,l),
(630,300,l),
(480,300,l),
(480,319,o),
(480,320,o),
(500,320,cs),
(630,320,l),
(629,600,o),
(614,600,o),
(385,600,cs),
(330,600,l),
(330,400,l),
(310,400,o),
(310,400,o),
(310,420,cs),
(310,600,l),
(10,600,l),
(10,320,l),
(170,320,l),
(170,301,o),
(170,300,o),
(150,300,cs),
(10,300,l),
(10,245,ls),
(10,0,o),
(10,0,o),
(255,0,cs)
);
}
);
width = 640;
}
);
},
{
glyphname = y.sc;
layers = (
{
anchors = (
{
name = bottom;
pos = (320,0);
},
{
name = top;
pos = (320,600);
},
{
name = topleft;
pos = (20,600);
}
);
layerId = m01;
shapes = (
{
closed = 1;
nodes = (
(630,600,l),
(330,600,l),
(330,400,l),
(320,400,ls),
(310,401,o),
(310,404,o),
(310,420,cs),
(310,600,l),
(10,600,l),
(10,345,ls),
(10,100,o),
(10,100,o),
(255,100,cs),
(320,100,l),
(320,80,o),
(320,80,o),
(300,80,cs),
(10,80,l),
(10,0,l),
(428,0,ls),
(630,1,o),
(630,15,o),
(630,245,cs)
);
}
);
width = 640;
}
);
},
{
glyphname = z.sc;
layers = (
{
anchors = (
{
name = bottom;
pos = (310,0);
},
{
name = center;
pos = (310,300);
},
{
name = top;
pos = (310,600);
}
);
layerId = m01;
shapes = (
{
closed = 1;
nodes = (
(610,0,l),
(610,300,l),
(215,300,ls),
(195,300,o),
(196,300,o),
(196,320,c),
(610,320,l),
(610,355,ls),
(610,600,o),
(610,600,o),
(365,600,cs),
(10,600,l),
(10,420,l),
(424,420,l),
(424,400,o),
(425,400,o),
(405,400,cs),
(10,400,l),
(10,245,ls),
(10,0,o),
(10,0,o),
(255,0,cs)
);
}
);
width = 620;
}
);
},
{
glyphname = ordfeminine;
layers = (
{
anchors = (
{
name = ogonek;
pos = (630,0);
}
);
background = {
shapes = (
{
closed = 1;
nodes = (
(10,516,ls),
(10,434,o),
(10,434,o),
(92,434,cs),
(158,434,ls),
(240,434,o),
(240,434,o),
(240,516,cs),
(240,619,ls),
(240,701,o),
(240,701,o),
(158,701,cs),
(92,701,ls),
(10,701,o),
(10,701,o),
(10,619,cs)
);
},
{
closed = 1;
nodes = (
(115,598,l),
(135,598,l),
(135,538,l),
(115,538,l)
);
}
);
};
layerId = m01;
shapes = (
{
closed = 1;
nodes = (
(101,700,ls),
(10,700,o),
(10,700,o),
(10,591,cs),
(10,543,ls),
(10,434,o),
(10,434,o),
(101,434,cs),
(115,434,l),
(115,453,l),
(135,453,l),
(135,434,l),
(240,434,l),
(240,700,l)
);
},
{
closed = 1;
nodes = (
(115,602,ls),
(115,611,o),
(121,611,o),
(135,611,c),
(135,538,l),
(115,538,l)
);
}
);
width = 250;
}
);
unicode = 170;
},
{
glyphname = ordmasculine;
layers = (
{
layerId = m01;
shapes = (
{
closed = 1;
nodes = (
(10,516,ls),
(10,434,o),
(10,434,o),
(92,434,cs),
(158,434,ls),
(240,434,o),
(240,434,o),
(240,516,cs),
(240,619,ls),
(240,701,o),
(240,701,o),
(158,701,cs),
(92,701,ls),
(10,701,o),
(10,701,o),
(10,619,cs)
);
},
{
closed = 1;
nodes = (
(115,598,l),
(135,598,l),
(135,538,l),
(115,538,l)
);
}
);
width = 250;
}
);
unicode = 186;
},
{
color = 4;
glyphname = "hamza-ar";
layers = (
{
anchors = (
{
name = bottom;
pos = (215,0);
},
{
name = top;
pos = (215,600);
}
);
layerId = m01;
shapes = (
{
closed = 1;
nodes = (
(540,0,l),
(540,300,l),
(150,300,ls),
(130,300,o),
(130,301,o),
(130,320,c),
(540,320,l),
(540,380,ls),
(540,600,o),
(540,600,o),
(320,600,cs),
(265,600,ls),
(20,600,o),
(20,600,o),
(20,355,cs),
(20,300,l),
(10,300,l),
(10,0,l)
);
}
);
width = 550;
}
);
unicode = 1569;
},
{
color = 4;
glyphname = "alef-ar";
layers = (
{
anchors = (
{
name = bottom;
pos = (160,0);
},
{
name = top;
pos = (160,700);
}
);
layerId = m01;
shapes = (
{
closed = 1;
nodes = (
(10,0,l),
(88,0,ls),
(310,0,o),
(310,0,o),
(310,225,cs),
(310,700,l),
(10,700,l)
);
}
);
width = 320;
}
);
unicode = 1575;
},
{
color = 4;
glyphname = "alef-ar.fina";
layers = (
{
anchors = (
{
name = bottom;
pos = (160,0);
},
{
name = top;
pos = (160,700);
}
);
layerId = m01;
shapes = (
{
closed = 1;
nodes = (
(10,700,l),
(10,225,ls),
(10,0,o),
(10,0,o),
(232,0,cs),
(320,0,l),
(320,300,l),
(310,300,o),
(310,300,o),
(310,320,cs),
(310,700,l)
);
}
);
width = 320;
}
);
},
{
color = 4;
glyphname = "behDotless-ar";
layers = (
{
anchors = (
{
name = bottom;
pos = (320,0);
},
{
name = ring;
pos = (320,0);
},
{
name = top;
pos = (320,600);
}
);
layerId = m01;
shapes = (
{
closed = 1;
nodes = (
(330,320,ls),
(330,300,o),
(330,300,o),
(310,300,c),
(310,600,l),
(10,600,l),
(10,225,ls),
(10,0,o),
(10,0,o),
(235,0,cs),
(405,0,ls),
(630,0,o),
(630,0,o),
(630,225,cs),
(630,600,l),
(330,600,l)
);
}
);
width = 640;
}
);
unicode = 1646;
},
{
color = 4;
glyphname = "behDotless-ar.fina";
layers = (
{
anchors = (
{
name = bottom;
pos = (320,0);
},
{
name = origin;
pos = (505,156);
},
{
name = ring;
pos = (320,0);
},
{
name = top;
pos = (320,600);
}
);
layerId = m01;
shapes = (
{
closed = 1;
nodes = (
(640,0,l),
(640,300,l),
(630,300,l),
(630,600,l),
(330,600,l),
(330,320,ls),
(330,300,o),
(330,300,o),
(310,300,c),
(310,600,l),
(10,600,l),
(10,225,ls),
(10,0,o),
(10,0,o),
(235,0,cs)
);
}
);
width = 640;
}
);
},
{
color = 4;
glyphname = "behDotless-ar.medi";
layers = (
{
anchors = (
{
name = bottom;
pos = (160,0);
},
{
name = origin;
},
{
name = ring;
pos = (162,0);
},
{
name = top;
pos = (160,600);
}
);
layerId = m01;
shapes = (
{
closed = 1;
nodes = (
(320,0,l),
(320,300,l),
(310,300,l),
(310,600,l),
(10,600,l),
(10,300,l),
(0,300,l),
(0,0,l)
);
},
{
ref = _cap.strokebutt;
}
);
width = 320;
}
);
},
{
color = 4;
glyphname = "behDotless-ar.init";
layers = (
{
anchors = (
{
name = bottom;
pos = (160,0);
},
{
name = top;
pos = (160,600);
}
);
layerId = m01;
shapes = (
{
closed = 1;
nodes = (
(10,320,ls),
(10,300,o),
(10,300,o),
(0,300,c),
(0,0,l),
(89,0,ls),
(310,0,o),
(310,0,o),
(310,225,cs),
(310,600,l),
(10,600,l)
);
},
{
ref = _cap.strokebutt;
}
);
width = 320;
}
);
},
{
color = 4;
glyphname = "hah-ar";
layers = (
{
anchors = (
{
name = bottom;
pos = (460,0);
},
{
name = center;
pos = (310,400);
},
{
name = top;
pos = (310,600);
}
);
layerId = m01;
shapes = (
{
closed = 1;
nodes = (
(290,-100,l),
(290,0,l),
(385,0,ls),
(573,0,o),
(610,-3,o),
(610,225,cs),
(610,345,ls),
(610,600,o),
(611,600,o),
(355,600,cs),
(10,600,l),
(10,319,l),
(290,319,ls),
(310,319,o),
(310,319,o),
(310,300,c),
(10,300,l),
(10,80,ls),
(10,-100,o),
(10,-100,o),
(190,-100,cs)
);
}
);
width = 620;
}
);
unicode = 1581;
},
{
glyphname = "hah-ar.fina";
layers = (
{
layerId = m01;
shapes = (
{
pos = (-1,0);
ref = "hah-ar";
},
{
closed = 1;
nodes = (
(355,0,l),
(619,0,l),
(619,300,l),
(355,300,l)
);
}
);
width = 619;
}
);
},
{
glyphname = "hah-ar.medi";
layers = (
{
anchors = (
{
name = bottom;
pos = (306,0);
},
{
name = top;
pos = (306,600);
}
);
layerId = m01;
shapes = (
{
closed = 1;
nodes = (
(375,0,ls),
(600,0,o),
(600,0,o),
(600,225,cs),
(600,345,ls),
(600,600,o),
(601,600,o),
(345,600,cs),
(10,600,l),
(10,319,l),
(10,300,l),
(0,300,l),
(0,0,l)
);
},
{
closed = 1;
nodes = (
(10,300,l),
(10,319,l),
(300,319,l),
(300,300,o),
(300,300,o),
(280,300,cs)
);
},
{
closed = 1;
nodes = (
(404,0,l),
(611,0,l),
(611,300,l),
(404,300,l)
);
},
{
ref = _cap.strokebutt;
}
);
width = 611;
}
);
},
{
color = 4;
glyphname = "hah-ar.init";
layers = (
{
anchors = (
{
name = bottom;
pos = (300,0);
},
{
name = top;
pos = (300,600);
}
);
layerId = m01;
shapes = (
{
closed = 1;
nodes = (
(375,0,ls),
(600,0,o),
(600,0,o),
(600,225,cs),
(600,345,ls),
(600,600,o),
(601,600,o),
(345,600,cs),
(10,600,l),
(10,320,l),
(10,300,l),
(0,300,l),
(0,0,l)
);
},
{
closed = 1;
nodes = (
(10,300,l),
(10,320,l),
(300,320,l),
(300,301,o),
(300,300,o),
(280,300,cs)
);
},
{
ref = _cap.strokebutt;
}
);
width = 610;
}
);
},
{
color = 4;
glyphname = "dal-ar";
layers = (
{
anchors = (
{
name = bottom;
pos = (217,0);
},
{
name = top;
pos = (219,600);
}
);
layerId = m01;
shapes = (
{
closed = 1;
nodes = (
(279,0,ls),
(504,0,o),
(504,0,o),
(504,225,cs),
(504,345,ls),
(504,600,o),
(505,600,o),
(249,600,cs),
(10,600,l),
(10,320,l),
(184,320,ls),
(204,320,o),
(204,319,o),
(204,300,c),
(10,300,l),
(10,0,l)
);
}
);
width = 514;
}
);
unicode = 1583;
},
{
glyphname = "dal-ar.fina";
layers = (
{
layerId = m01;
shapes = (
{
closed = 1;
nodes = (
(268,0,l),
(514,0,l),
(514,300,l),
(268,300,l)
);
},
{
ref = "dal-ar";
}
);
width = 514;
}
);
},
{
color = 4;
glyphname = "reh-ar";
layers = (
{
anchors = (
{
name = bottom;
pos = (160,-100);
},
{
name = top;
pos = (160,600);
}
);
layerId = m01;
shapes = (
{
closed = 1;
nodes = (
(88,-100,ls),
(310,-100,o),
(310,-100,o),
(310,125,cs),
(310,600,l),
(10,600,l),
(10,-100,l)
);
}
);
width = 320;
}
);
unicode = 1585;
},
{
color = 4;
glyphname = "reh-ar.fina";
layers = (
{
layerId = m01;
shapes = (
{
ref = "reh-ar";
},
{
closed = 1;
nodes = (
(76,0,l),
(320,0,l),
(320,300,l),
(76,300,l)
);
}
);
width = 320;
}
);
},
{
color = 4;
glyphname = "seen-ar";
layers = (
{
anchors = (
{
name = bottom;
pos = (811,0);
},
{
name = top;
pos = (800,600);
}
);
layerId = m01;
shapes = (
{
closed = 1;
nodes = (
(970,320,ls),
(970,300,o),
(969,300,o),
(950,300,c),
(950,600,l),
(650,600,l),
(650,320,ls),
(650,300,o),
(650,300,o),
(630,300,c),
(630,600,l),
(330,600,l),
(330,220,ls),
(330,200,o),
(330,200,o),
(310,200,c),
(310,600,l),
(10,600,l),
(11,125,ls),
(11,-100,o),
(11,-100,o),
(236,-100,cs),
(447,-100,ls),
(580,-100,o),
(615,-65,o),
(624,0,c),
(1045,0,ls),
(1270,0,o),
(1270,0,o),
(1270,225,cs),
(1270,600,l),
(970,600,l)
);
}
);
width = 1280;
}
);
unicode = 1587;
},
{
glyphname = "seen-ar.fina";
layers = (
{
layerId = m01;
shapes = (
{
ref = "seen-ar";
},
{
closed = 1;
nodes = (
(1124,0,l),
(1278,0,l),
(1278,300,l),
(1124,300,l)
);
}
);
width = 1278;
}
);
},
{
color = 4;
glyphname = "seen-ar.medi";
layers = (
{
anchors = (
{
name = bottom;
pos = (488,0);
},
{
name = origin;
pos = (3,1);
},
{
name = top;
pos = (481,600);
}
);
layerId = m01;
shapes = (
{
closed = 1;
nodes = (
(650,320,ls),
(650,300,o),
(649,300,o),
(630,300,c),
(630,600,l),
(330,600,l),
(330,320,l),
(330,300,o),
(323,300,o),
(310,300,c),
(310,600,l),
(10,600,l),
(10,300,l),
(0,300,l),
(0,0,l),
(960,0,l),
(960,300,l),
(950,300,l),
(950,600,l),
(650,600,l)
);
},
{
ref = _cap.strokebutt;
}
);
width = 960;
}
);
},
{
color = 4;
glyphname = "seen-ar.init";
layers = (
{
anchors = (
{
name = bottom;
pos = (483,0);
},
{
name = top;
pos = (483,600);
}
);
layerId = m01;
shapes = (
{
closed = 1;
nodes = (
(650,320,ls),
(650,300,o),
(649,300,o),
(630,300,c),
(630,600,l),
(331,600,l),
(330,320,l),
(330,300,o),
(329,300,o),
(310,300,c),
(310,600,l),
(10,600,l),
(10,300,l),
(0,300,l),
(0,0,l),
(725,0,ls),
(950,0,o),
(950,0,o),
(950,225,cs),
(950,600,l),
(650,600,l)
);
},
{
ref = _cap.strokebutt;
}
);
width = 960;
}
);
},
{
color = 4;
glyphname = "sad-ar";
layers = (
{
anchors = (
{
name = bottom;
pos = (798,0);
},
{
name = top;
pos = (798,600);
}
);
layerId = m01;
shapes = (
{
closed = 1;
nodes = (
(629,600,l),
(629,620,l),
(329,620,l),
(329,200,l),
(310,200,l),
(310,600,l),
(10,600,l),
(10,125,ls),
(10,-100,o),
(10,-100,o),
(235,-100,cs),
(449,-100,ls),
(582,-100,o),
(617,-65,o),
(626,0,c),
(995,0,ls),
(1220,0,o),
(1220,0,o),
(1220,225,cs),
(1220,390,ls),
(1220,600,o),
(1220,600,o),
(1010,600,cs)
);
},
{
closed = 1;
nodes = (
(964,320,o),
(964,319,o),
(964,300,c),
(629,300,l),
(629,320,l),
(944,320,ls)
);
}
);
width = 1230;
}
);
unicode = 1589;
},
{
glyphname = "sad-ar.fina";
layers = (
{
layerId = m01;
shapes = (
{
ref = "sad-ar";
},
{
closed = 1;
nodes = (
(964,0,l),
(1234,0,l),
(1234,300,l),
(964,300,l)
);
}
);
width = 1234;
}
);
},
{
glyphname = "sad-ar.medi";
layers = (
{
layerId = m01;
shapes = (
{
ref = "sad-ar.init";
},
{
closed = 1;
nodes = (
(688,300,l),
(688,0,l),
(911,0,l),
(911,300,l)
);
}
);
width = 911;
}
);
},
{
color = 4;
glyphname = "sad-ar.init";
layers = (
{
anchors = (
{
name = bottom;
pos = (456,0);
},
{
name = top;
pos = (480,600);
}
);
layerId = m01;
shapes = (
{
closed = 1;
nodes = (
(645,319,o),
(645,319,o),
(645,300,c),
(310,300,l),
(310,319,l),
(625,319,ls)
);
},
{
closed = 1;
nodes = (
(10,600,l),
(310,600,l),
(310,620,l),
(10,620,l)
);
},
{
closed = 1;
nodes = (
(10,0,l),
(676,0,ls),
(901,0,o),
(901,0,o),
(901,225,cs),
(901,390,ls),
(901,600,o),
(901,600,o),
(691,600,cs),
(10,600,l)
);
},
{
closed = 1;
nodes = (
(0,300,l),
(0,0,l),
(223,0,l),
(223,300,l)
);
},
{
ref = _cap.strokebutt;
}
);
width = 911;
}
);
},
{
color = 4;
glyphname = "tah-ar";
layers = (
{
anchors = (
{
name = bottom;
pos = (461,0);
},
{
name = top;
pos = (480,600);
}
);
layerId = m01;
shapes = (
{
closed = 1;
nodes = (
(655,320,o),
(655,319,o),
(655,300,c),
(317,300,l),
(317,320,l),
(635,320,ls)
);
},
{
closed = 1;
nodes = (
(10,0,l),
(686,0,ls),
(911,0,o),
(911,0,o),
(911,225,cs),
(911,390,ls),
(911,600,o),
(911,600,o),
(701,600,cs),
(310,600,l),
(310,700,l),
(10,700,l)
);
}
);
width = 921;
}
);
unicode = 1591;
},
{
glyphname = "tah-ar.fina";
layers = (
{
layerId = m01;
shapes = (
{
ref = "tah-ar";
},
{
closed = 1;
nodes = (
(732,0,l),
(921,0,l),
(921,300,l),
(732,300,l)
);
}
);
width = 921;
}
);
},
{
glyphname = "tah-ar.medi";
layers = (
{
layerId = m01;
shapes = (
{
ref = "tah-ar";
},
{
closed = 1;
nodes = (
(732,0,l),
(921,0,l),
(921,300,l),
(732,300,l)
);
},
{
ref = _cap.strokebutt;
},
{
closed = 1;
nodes = (
(0,0,l),
(189,0,l),
(189,300,l),
(0,300,l)
);
}
);
width = 921;
}
);
},
{
color = 4;
glyphname = "tah-ar.init";
layers = (
{
layerId = m01;
shapes = (
{
ref = "tah-ar";
},
{
ref = _cap.strokebutt;
},
{
closed = 1;
nodes = (
(-1,0,l),
(19,0,l),
(19,300,l),
(-1,300,l)
);
}
);
width = 921;
}
);
},
{
color = 4;
glyphname = "ain-ar";
layers = (
{
anchors = (
{
name = bottom;
pos = (480,0);
},
{
name = top;
pos = (310,600);
}
);
layerId = m01;
shapes = (
{
closed = 1;
nodes = (
(630,321,l),
(630,345,ls),
(630,600,o),
(631,600,o),
(375,600,cs),
(265,600,ls),
(9,600,o),
(10,600,o),
(10,345,cs),
(10,80,ls),
(10,-37,o),
(10,-100,o),
(190,-100,cs),
(310,-100,l),
(310,0,l),
(630,0,l),
(630,300,l),
(297,301,l),
(297,320,o),
(297,321,o),
(317,321,cs)
);
}
);
width = 640;
}
);
unicode = 1593;
},
{
color = 4;
glyphname = "ain-ar.fina";
layers = (
{
annotations = (
{
angle = 0.61759;
pos = (653,237);
type = Arrow;
}
);
layerId = m01;
shapes = (
{
alignment = -1;
ref = "ain-ar";
},
{
closed = 1;
nodes = (
(630,0,l),
(640,0,l),
(640,300,l),
(630,300,l)
);
}
);
width = 640;
}
);
},
{
color = 4;
glyphname = "ain-ar.medi";
layers = (
{
anchors = (
{
name = bottom;
pos = (311,0);
},
{
name = top;
pos = (311,600);
}
);
layerId = m01;
shapes = (
{
closed = 1;
nodes = (
(612,0,l),
(612,345,ls),
(612,600,o),
(613,600,o),
(357,600,cs),
(265,600,ls),
(9,600,o),
(10,600,o),
(10,345,cs),
(10,0,l)
);
},
{
ref = _cap.strokebutt;
},
{
closed = 1;
nodes = (
(198,0,l),
(196,300,l),
(0,300,l),
(0,0,l)
);
},
{
closed = 1;
nodes = (
(622,0,l),
(622,300,l),
(426,300,l),
(426,0,l)
);
},
{
closed = 1;
nodes = (
(161,301,l),
(161,320,o),
(161,320,o),
(181,320,cs),
(612,320,l),
(612,300,l)
);
}
);
width = 622;
}
);
},
{
color = 4;
glyphname = "ain-ar.init";
layers = (
{
anchors = (
{
name = bottom;
pos = (311,0);
},
{
name = top;
pos = (311,600);
}
);
layerId = m01;
shapes = (
{
closed = 1;
nodes = (
(612,321,l),
(612,300,l),
(310,301,l),
(310,320,o),
(310,321,o),
(330,321,cs)
);
},
{
closed = 1;
nodes = (
(0,0,l),
(196,0,l),
(196,300,l),
(0,300,l)
);
},
{
ref = _cap.strokebutt;
},
{
closed = 1;
nodes = (
(612,0,l),
(612,345,ls),
(612,600,o),
(613,600,o),
(357,600,cs),
(265,600,ls),
(9,600,o),
(10,600,o),
(10,345,cs),
(10,0,l)
);
}
);
width = 622;
}
);
},
{
color = 4;
glyphname = "fehDotless-ar";
layers = (
{
anchors = (
{
name = bottom;
pos = (633,0);
},
{
name = top;
pos = (633,600);
}
);
layerId = m01;
shapes = (
{
closed = 1;
nodes = (
(630,455,o),
(630,455,o),
(649,455,c),
(648,300,l),
(629,300,l),
(630,435,ls)
);
},
{
closed = 1;
nodes = (
(328,600,o),
(329,600,o),
(329,345,cs),
(329,300,l),
(310,300,l),
(310,600,l),
(10,600,l),
(10,225,ls),
(10,5,o),
(10,0,o),
(221,0,cs),
(723,0,ls),
(948,0,o),
(948,0,o),
(948,225,cs),
(948,600,l),
(584,600,ls)
);
}
);
width = 958;
}
);
unicode = 1697;
},
{
color = 4;
glyphname = "fehDotless-ar.fina";
layers = (
{
layerId = m01;
shapes = (
{
closed = 1;
nodes = (
(676,0,l),
(958,0,l),
(958,300,l),
(676,300,l)
);
},
{
ref = "fehDotless-ar";
}
);
width = 958;
}
);
},
{
color = 4;
glyphname = "fehDotless-ar.medi";
layers = (
{
anchors = (
{
name = bottom;
pos = (323,0);
},
{
name = top;
pos = (323,600);
}
);
layerId = m01;
shapes = (
{
closed = 1;
nodes = (
(311,455,o),
(311,455,o),
(330,455,c),
(329,300,l),
(310,300,l),
(311,435,ls)
);
},
{
closed = 1;
nodes = (
(639,0,l),
(639,300,l),
(629,300,l),
(629,600,l),
(265,600,ls),
(9,600,o),
(10,600,o),
(10,345,cs),
(10,300,l),
(0,300,l),
(0,0,l)
);
},
{
ref = _cap.strokebutt;
}
);
width = 639;
}
);
},
{
color = 4;
glyphname = "fehDotless-ar.init";
layers = (
{
anchors = (
{
name = bottom;
pos = (320,0);
},
{
name = top;
pos = (320,600);
}
);
layerId = m01;
shapes = (
{
closed = 1;
nodes = (
(404,0,l),
(629,0,o),
(629,0,o),
(629,225,cs),
(629,600,l),
(264,600,ls),
(8,600,o),
(9,600,o),
(9,345,cs),
(9,300,l),
(-1,300,l),
(-1,0,l)
);
},
{
closed = 1;
nodes = (
(310,435,ls),
(310,455,o),
(311,455,o),
(330,455,c),
(329,300,l),
(309,300,l)
);
},
{
ref = _cap.strokebutt;
}
);
width = 639;
}
);
},
{
color = 4;
glyphname = "qafDotless-ar";
layers = (
{
anchors = (
{
name = bottom;
pos = (638,-100);
},
{
name = top;
pos = (643,600);
}
);
layerId = m01;
shapes = (
{
closed = 1;
nodes = (
(631,455,o),
(632,455,o),
(651,455,c),
(651,300,l),
(630,300,l),
(631,435,ls)
);
},
{
closed = 1;
nodes = (
(10,-95,o),
(10,-100,o),
(221,-100,cs),
(729,-100,ls),
(935,-100,o),
(951,-100,o),
(951,0,cs),
(951,600,l),
(585,600,ls),
(329,600,o),
(330,600,o),
(330,345,cs),
(330,1,l),
(587,1,ls),
(607,1,o),
(607,-1,o),
(607,-20,c),
(310,-19,l),
(310,600,l),
(10,600,l),
(10,125,ls)
);
}
);
width = 961;
}
);
unicode = 1647;
},
{
color = 4;
glyphname = "qafDotless-ar.fina";
layers = (
{
layerId = m01;
shapes = (
{
ref = "qafDotless-ar";
},
{
closed = 1;
nodes = (
(801,0,l),
(961,0,l),
(961,300,l),
(801,300,l)
);
}
);
width = 961;
}
);
},
{
color = 4;
glyphname = "kaf-ar";
layers = (
{
anchors = (
{
name = bottom;
pos = (315,0);
},
{
name = top;
pos = (164,564);
}
);
hints = (
{
horizontal = 1;
origin = (0,7);
target = up;
type = BottomGhost;
},
{
horizontal = 1;
origin = (0,1);
target = down;
type = TopGhost;
},
{
horizontal = 1;
origin = (0,14);
target = down;
type = TopGhost;
},
{
origin = (0,9);
target = (0,13);
type = Stem;
},
{
origin = (0,4);
target = (0,1);
type = Stem;
}
);
layerId = m01;
shapes = (
{
closed = 1;
nodes = (
(330,300,l),
(310,300,l),
(310,443,l),
(10,443,l),
(10,225,ls),
(10,0,o),
(10,0,o),
(232,0,cs),
(330,0,l),
(330,-1,l),
(408,0,ls),
(630,3,o),
(630,0,o),
(630,225,cs),
(630,700,l),
(330,699,l)
);
},
{
pos = (10,-257);
ref = "hamzaabove-ar";
}
);
width = 640;
}
);
unicode = 1603;
},
{
glyphname = "kaf-ar.fina";
layers = (
{
layerId = m01;
shapes = (
{
ref = "kaf-ar";
},
{
closed = 1;
nodes = (
(401,0,l),
(640,0,l),
(640,300,l),
(401,300,l)
);
}
);
width = 640;
}
);
},
{
glyphname = "kaf-ar.medi";
layers = (
{
layerId = m01;
shapes = (
{
ref = "kaf-ar.init";
},
{
closed = 1;
nodes = (
(528,0,l),
(770,0,l),
(770,300,l),
(528,300,l)
);
}
);
width = 770;
}
);
},
{
color = 4;
glyphname = "kaf-ar.init";
layers = (
{
anchors = (
{
name = bottom;
pos = (385,0);
},
{
name = top;
pos = (385,700);
}
);
layerId = m01;
shapes = (
{
closed = 1;
nodes = (
(0,0,l),
(538,0,ls),
(760,0,o),
(760,0,o),
(760,225,cs),
(760,300,l),
(0,300,l)
);
},
{
closed = 1;
nodes = (
(10,380,l),
(760,380,l),
(760,700,l),
(10,700,l)
);
},
{
closed = 1;
nodes = (
(10,380,l),
(10,300,l),
(760,300,l),
(760,380,l)
);
},
{
closed = 1;
nodes = (
(10,300,l),
(10,320,l),
(460,320,l),
(460,301,o),
(460,300,o),
(440,300,cs)
);
},
{
closed = 1;
nodes = (
(264,380,o),
(264,380,o),
(264,400,c),
(760,400,l),
(760,380,l),
(284,380,ls)
);
},
{
ref = _cap.strokebutt;
}
);
width = 770;
}
);
},
{
glyphname = "keheh-ar";
layers = (
{
anchors = (
{
name = bottom;
pos = (531,0);
},
{
name = top;
pos = (677,700);
}
);
layerId = m01;
shapes = (
{
closed = 1;
nodes = (
(302,320,l),
(752,320,l),
(752,301,o),
(752,300,o),
(732,300,cs),
(282,300,l),
(282,600,l),
(10,600,l),
(10,240,ls),
(10,-1,o),
(10,0,o),
(250,0,cs),
(1052,0,l),
(1052,380,l),
(576,380,ls),
(556,380,o),
(556,380,o),
(556,400,c),
(1052,400,l),
(1052,700,l),
(302,700,l)
);
}
);
width = 1062;
}
);
unicode = 1705;
},
{
glyphname = "keheh-ar.fina";
layers = (
{
layerId = m01;
shapes = (
{
ref = "keheh-ar";
},
{
closed = 1;
nodes = (
(1052,0,l),
(1062,0,l),
(1062,300,l),
(1052,300,l)
);
}
);
width = 1062;
}
);
},
{
glyphname = "gaf-ar.fina";
layers = (
{
layerId = m01;
shapes = (
{
ref = "gaf-ar";
},
{
closed = 1;
nodes = (
(1045,380,l),
(1045,0,l),
(1062,0,l),
(1062,380,l)
);
}
);
width = 1062;
}
);
},
{
color = 4;
glyphname = "lam-ar";
layers = (
{
anchors = (
{
name = bottom;
pos = (160,-100);
},
{
name = top;
pos = (160,600);
}
);
background = {
shapes = (
{
closed = 1;
nodes = (
(625,-100,l),
(630,700,l),
(330,700,l),
(330,0,ls),
(330,-20,o),
(330,-20,o),
(310,-20,c),
(310,600,l),
(10,600,l),
(10,125,ls),
(10,-100,o),
(10,-100,o),
(232,-100,cs)
);
},
{
closed = 1;
nodes = (
(640,0,l),
(640,300,l),
(567,300,l),
(567,0,l)
);
}
);
};
layerId = m01;
shapes = (
{
closed = 1;
nodes = (
(330,-20,l),
(310,-20,l),
(310,600,l),
(10,600,l),
(10,125,ls),
(10,-100,o),
(10,-100,o),
(232,-100,cs),
(408,-100,ls),
(630,-100,o),
(630,-100,o),
(630,125,cs),
(630,700,l),
(330,700,l)
);
}
);
width = 640;
}
);
unicode = 1604;
},
{
glyphname = "lam-ar.fina";
layers = (
{
anchors = (
{
name = bottom;
pos = (161,-100);
},
{
name = top;
pos = (160,600);
}
);
layerId = m01;
shapes = (
{
closed = 1;
nodes = (
(625,-100,l),
(630,700,l),
(330,700,l),
(330,0,ls),
(330,-20,o),
(330,-20,o),
(310,-20,c),
(310,600,l),
(10,600,l),
(10,125,ls),
(10,-100,o),
(10,-100,o),
(232,-100,cs)
);
},
{
closed = 1;
nodes = (
(640,0,l),
(640,300,l),
(567,300,l),
(567,0,l)
);
}
);
width = 640;
}
);
},
{
color = 4;
glyphname = "lam-ar.medi";
layers = (
{
anchors = (
{
name = bottom;
pos = (160,0);
},
{
name = top;
pos = (160,700);
}
);
layerId = m01;
shapes = (
{
closed = 1;
nodes = (
(310,0,l),
(310,700,l),
(10,700,l),
(10,0,l)
);
},
{
ref = _cap.strokebutt;
},
{
closed = 1;
nodes = (
(10,0,l),
(10,300,l),
(0,300,l),
(0,0,l)
);
},
{
closed = 1;
nodes = (
(320,0,l),
(320,300,l),
(310,300,l),
(310,0,l)
);
}
);
width = 320;
}
);
},
{
color = 4;
glyphname = "meem-ar";
layers = (
{
anchors = (
{
name = bottom;
pos = (401,0);
},
{
name = top;
pos = (320,600);
}
);
layerId = m01;
shapes = (
{
closed = 1;
nodes = (
(331,300,l),
(310,300,l),
(310,455,l),
(329,455,o),
(330,455,o),
(330,435,cs)
);
},
{
closed = 1;
nodes = (
(9,600,o),
(10,600,o),
(10,345,cs),
(10,-100,l),
(101,-100,ls),
(238,-100,o),
(258,-100,o),
(261,0,c),
(406,0,ls),
(631,0,o),
(631,0,o),
(631,225,cs),
(631,345,ls),
(631,600,o),
(632,600,o),
(376,600,cs),
(265,600,ls)
);
}
);
width = 641;
}
);
unicode = 1605;
},
{
color = 4;
glyphname = "meem-ar.fina";
layers = (
{
layerId = m01;
shapes = (
{
ref = "meem-ar";
},
{
closed = 1;
nodes = (
(446,0,l),
(641,0,l),
(641,300,l),
(446,300,l)
);
}
);
width = 641;
}
);
},
{
glyphname = "meem-ar.medi";
layers = (
{
layerId = m01;
shapes = (
{
ref = "meem-ar.init";
},
{
closed = 1;
nodes = (
(446,0,l),
(642,0,l),
(642,300,l),
(446,300,l)
);
}
);
width = 642;
}
);
},
{
color = 4;
glyphname = "meem-ar.init";
layers = (
{
anchors = (
{
name = bottom;
pos = (300,0);
},
{
name = top;
pos = (300,600);
}
);
layerId = m01;
shapes = (
{
closed = 1;
nodes = (
(332,300,l),
(312,300,l),
(312,455,l),
(331,455,o),
(331,455,o),
(331,435,cs)
);
},
{
closed = 1;
nodes = (
(9,600,o),
(10,600,o),
(10,345,cs),
(10,225,ls),
(10,0,o),
(10,0,o),
(235,0,cs),
(407,0,ls),
(632,0,o),
(632,0,o),
(632,225,cs),
(632,345,ls),
(632,600,o),
(633,600,o),
(377,600,cs),
(265,600,ls)
);
},
{
closed = 1;
nodes = (
(0,0,l),
(196,0,l),
(196,300,l),
(0,300,l)
);
},
{
ref = _cap.strokebutt;
}
);
width = 642;
}
);
},
{
color = 4;
glyphname = "noonghunna-ar";
layers = (
{
anchors = (
{
name = bottom;
pos = (320,-100);
},
{
name = ring;
pos = (320,0);
},
{
name = top;
pos = (320,600);
}
);
background = {
shapes = (
{
closed = 1;
nodes = (
(630,-100,l),
(630,0,l),
(641,0,l),
(640,300,l),
(630,300,l),
(630,600,l),
(330,600,l),
(330,20,ls),
(330,0,o),
(330,0,o),
(310,0,c),
(310,600,l),
(10,600,l),
(10,125,ls),
(10,-100,o),
(10,-100,o),
(235,-100,cs)
);
}
);
};
layerId = m01;
shapes = (
{
closed = 1;
nodes = (
(330,20,ls),
(330,0,o),
(330,0,o),
(310,0,c),
(310,600,l),
(10,600,l),
(10,125,ls),
(10,-100,o),
(10,-100,o),
(235,-100,cs),
(405,-100,ls),
(630,-100,o),
(630,-100,o),
(630,125,cs),
(630,600,l),
(330,600,l)
);
}
);
width = 640;
}
);
unicode = 1722;
},
{
color = 4;
glyphname = "noonghunna-ar.fina";
layers = (
{
anchors = (
{
name = bottom;
pos = (320,-100);
},
{
name = origin;
pos = (505,156);
},
{
name = ring;
pos = (320,0);
},
{
name = top;
pos = (320,600);
}
);
layerId = m01;
shapes = (
{
closed = 1;
nodes = (
(630,-100,l),
(630,0,l),
(641,0,l),
(640,300,l),
(630,300,l),
(630,600,l),
(330,600,l),
(330,20,ls),
(330,0,o),
(330,0,o),
(310,0,c),
(310,600,l),
(10,600,l),
(10,125,ls),
(10,-100,o),
(10,-100,o),
(235,-100,cs)
);
}
);
width = 640;
}
);
},
{
color = 4;
glyphname = "heh-ar";
layers = (
{
anchors = (
{
name = bottom;
pos = (300,0);
},
{
name = top;
pos = (300,600);
}
);
layerId = m01;
shapes = (
{
closed = 1;
nodes = (
(151,300,l),
(151,320,l),
(441,320,l),
(441,301,o),
(441,300,o),
(421,300,cs)
);
},
{
closed = 1;
nodes = (
(9,600,o),
(10,600,o),
(10,345,cs),
(10,225,ls),
(10,0,o),
(10,0,o),
(235,0,cs),
(357,0,ls),
(582,0,o),
(582,0,o),
(582,225,cs),
(582,345,ls),
(582,600,o),
(583,600,o),
(327,600,cs),
(265,600,ls)
);
}
);
width = 592;
}
);
unicode = 1607;
},
{
color = 4;
glyphname = "heh-ar.fina";
layers = (
{
anchors = (
{
name = bottom;
pos = (253,0);
},
{
name = top;
pos = (253,600);
}
);
layerId = m01;
shapes = (
{
closed = 1;
nodes = (
(505,300,l),
(495,300,l),
(495,319,l),
(495,600,l),
(265,600,ls),
(9,600,o),
(10,600,o),
(10,345,cs),
(10,225,ls),
(10,0,o),
(10,0,o),
(235,0,cs),
(505,0,l)
);
},
{
closed = 1;
nodes = (
(495,320,l),
(495,300,l),
(119,300,l),
(119,319,o),
(119,320,o),
(139,320,cs)
);
},
{
closed = 1;
nodes = (
(368,340,l),
(368,271,l),
(495,271,l),
(495,340,l)
);
}
);
width = 505;
}
);
},
{
color = 4;
glyphname = "heh-ar.medi";
layers = (
{
anchors = (
{
name = bottom;
pos = (296,-100);
},
{
name = top;
pos = (296,600);
}
);
layerId = m01;
shapes = (
{
closed = 1;
nodes = (
(469,320,o),
(469,319,o),
(469,300,c),
(151,300,l),
(151,320,l),
(449,320,ls)
);
},
{
closed = 1;
nodes = (
(9,600,o),
(10,600,o),
(10,345,cs),
(10,125,ls),
(10,-100,o),
(10,-100,o),
(235,-100,cs),
(385,-100,ls),
(610,-100,o),
(610,-100,o),
(610,125,cs),
(610,345,ls),
(610,600,o),
(611,600,o),
(355,600,cs),
(265,600,ls)
);
},
{
closed = 1;
nodes = (
(151,-19,o),
(151,-18,o),
(151,1,c),
(469,1,l),
(469,-19,l),
(171,-19,ls)
);
},
{
closed = 1;
nodes = (
(601,0,l),
(620,0,l),
(620,300,l),
(601,300,l)
);
},
{
closed = 1;
nodes = (
(0,0,l),
(19,0,l),
(19,300,l),
(0,300,l)
);
},
{
ref = _cap.strokebutt;
}
);
width = 620;
}
);
},
{
color = 4;
glyphname = "heh-ar.init";
layers = (
{
anchors = (
{
name = bottom;
pos = (355,0);
},
{
name = top;
pos = (355,600);
}
);
layerId = m01;
shapes = (
{
closed = 1;
nodes = (
(475,0,ls),
(700,0,o),
(700,0,o),
(700,225,cs),
(700,345,ls),
(700,600,o),
(701,600,o),
(445,600,cs),
(10,600,l),
(10,319,l),
(10,300,l),
(0,300,l),
(0,0,l)
);
},
{
closed = 1;
nodes = (
(10,300,l),
(10,320,l),
(591,320,l),
(591,301,o),
(591,300,o),
(571,300,cs)
);
},
{
closed = 1;
nodes = (
(316,271,l),
(443,271,l),
(443,340,l),
(316,340,l)
);
},
{
closed = 1;
nodes = (
(50,271,l),
(177,271,l),
(177,340,l),
(50,340,l)
);
},
{
ref = _cap.strokebutt;
}
);
width = 710;
}
);
},
{
glyphname = "hehgoal-ar";
layers = (
{
anchors = (
{
name = bottom;
pos = (320,0);
},
{
name = ring;
pos = (320,0);
},
{
name = top;
pos = (320,600);
}
);
layerId = m01;
shapes = (
{
closed = 1;
nodes = (
(310,280,ls),
(310,300,o),
(310,300,o),
(330,300,c),
(330,0,l),
(630,0,l),
(630,600,l),
(235,600,ls),
(10,600,o),
(10,600,o),
(10,375,cs),
(10,0,l),
(310,0,l)
);
}
);
width = 640;
}
);
unicode = 1729;
},
{
glyphname = "hehgoal-ar.fina";
layers = (
{
anchors = (
{
name = bottom;
pos = (320,0);
},
{
name = ring;
pos = (320,0);
},
{
name = top;
pos = (320,600);
}
);
layerId = m01;
shapes = (
{
closed = 1;
nodes = (
(458,0,l),
(640,0,l),
(640,300,l),
(458,300,l)
);
},
{
closed = 1;
nodes = (
(310,280,ls),
(310,300,o),
(310,300,o),
(330,300,c),
(330,0,l),
(630,0,l),
(630,600,l),
(235,600,ls),
(10,600,o),
(10,600,o),
(10,375,cs),
(10,0,l),
(310,0,l)
);
}
);
width = 640;
}
);
},
{
glyphname = "hehDoachashmee-ar";
layers = (
{
layerId = m01;
shapes = (
{
closed = 1;
nodes = (
(485,0,ls),
(710,0,o),
(710,0,o),
(710,225,cs),
(710,345,ls),
(710,600,o),
(711,600,o),
(455,600,cs),
(20,600,l),
(20,319,l),
(20,300,l),
(10,300,l),
(10,0,l)
);
},
{
closed = 1;
nodes = (
(20,300,l),
(20,320,l),
(601,320,l),
(601,301,o),
(601,300,o),
(581,300,cs)
);
},
{
closed = 1;
nodes = (
(326,271,l),
(453,271,l),
(453,340,l),
(326,340,l)
);
},
{
closed = 1;
nodes = (
(60,271,l),
(187,271,l),
(187,340,l),
(60,340,l)
);
}
);
width = 720;
}
);
unicode = 1726;
},
{
glyphname = "hehDoachashmee-ar.fina";
layers = (
{
anchors = (
{
name = bottom;
pos = (365,0);
},
{
name = top;
pos = (365,600);
}
);
layerId = m01;
shapes = (
{
closed = 1;
nodes = (
(485,0,ls),
(710,0,o),
(710,0,o),
(710,225,cs),
(710,345,ls),
(710,600,o),
(711,600,o),
(455,600,cs),
(20,600,l),
(20,319,l),
(20,300,l),
(10,300,l),
(10,0,l)
);
},
{
closed = 1;
nodes = (
(20,300,l),
(20,320,l),
(601,320,l),
(601,301,o),
(601,300,o),
(581,300,cs)
);
},
{
closed = 1;
nodes = (
(326,271,l),
(453,271,l),
(453,340,l),
(326,340,l)
);
},
{
closed = 1;
nodes = (
(60,271,l),
(187,271,l),
(187,340,l),
(60,340,l)
);
},
{
closed = 1;
nodes = (
(460,0,l),
(720,0,l),
(720,300,l),
(460,300,l)
);
}
);
width = 720;
}
);
},
{
glyphname = "hehDoachashmee-ar.medi";
layers = (
{
layerId = m01;
shapes = (
{
ref = "heh-ar.init";
},
{
closed = 1;
nodes = (
(450,0,l),
(710,0,l),
(710,300,l),
(450,300,l)
);
}
);
width = 710;
}
);
},
{
color = 4;
glyphname = "waw-ar";
layers = (
{
anchors = (
{
name = bottom;
pos = (320,-100);
},
{
name = center;
pos = (320,400);
},
{
name = top;
pos = (320,600);
}
);
layerId = m01;
shapes = (
{
closed = 1;
nodes = (
(330,300,l),
(310,300,l),
(310,433,l),
(329,433,o),
(330,433,o),
(330,413,cs)
);
},
{
closed = 1;
nodes = (
(630,355,ls),
(630,600,o),
(630,600,o),
(385,600,cs),
(265,600,ls),
(9,600,o),
(10,600,o),
(10,345,cs),
(10,225,ls),
(10,0,o),
(10,0,o),
(235,0,cs),
(282,0,l),
(282,-13,o),
(278,-20,o),
(272,-20,cs),
(41,-20,l),
(41,-40,ls),
(41,-100,o),
(41,-100,o),
(201,-100,cs),
(408,-100,ls),
(630,-100,o),
(630,-100,o),
(630,25,cs)
);
}
);
width = 640;
}
);
unicode = 1608;
},
{
color = 4;
glyphname = "waw-ar.fina";
layers = (
{
layerId = m01;
shapes = (
{
ref = "waw-ar";
},
{
closed = 1;
nodes = (
(556,0,l),
(640,0,l),
(640,300,l),
(556,300,l)
);
}
);
width = 640;
}
);
},
{
color = 4;
glyphname = "alefMaksura-ar";
layers = (
{
anchors = (
{
name = bottom;
pos = (800,0);
},
{
name = top;
pos = (162,600);
}
);
layerId = m01;
shapes = (
{
closed = 1;
nodes = (
(630,-100,l),
(630,300,l),
(650,300,l),
(650,0,l),
(950,0,l),
(950,600,l),
(330,600,l),
(330,20,ls),
(330,0,o),
(330,0,o),
(310,0,c),
(310,600,l),
(10,600,l),
(10,125,ls),
(10,-100,o),
(10,-100,o),
(235,-100,cs)
);
}
);
width = 960;
}
);
unicode = 1609;
},
{
color = 4;
glyphname = "alefMaksura-ar.fina";
layers = (
{
anchors = (
{
name = bottom;
pos = (800,0);
},
{
name = top;
pos = (160,600);
}
);
layerId = m01;
shapes = (
{
closed = 1;
nodes = (
(960,0,l),
(960,300,l),
(950,300,l),
(950,600,l),
(330,600,l),
(330,20,ls),
(330,0,o),
(330,0,o),
(310,0,c),
(310,600,l),
(10,600,l),
(10,125,ls),
(10,-100,o),
(10,-100,o),
(235,-100,cs),
(630,-100,l),
(630,300,l),
(650,300,l),
(650,0,l)
);
}
);
width = 960;
}
);
},
{
glyphname = "yehHamzaabove-ar";
layers = (
{
anchors = (
{
name = bottom;
pos = (804,0);
},
{
name = top;
pos = (157,600);
}
);
layerId = m01;
shapes = (
{
closed = 1;
nodes = (
(10,-100,o),
(10,-100,o),
(10,125,cs),
(10,481,l),
(310,481,l),
(310,0,l),
(330,0,o),
(330,0,o),
(330,20,cs),
(330,600,l),
(950,600,l),
(950,0,l),
(650,0,l),
(650,280,ls),
(650,300,o),
(650,300,o),
(630,300,c),
(630,-100,l),
(235,-100,ls)
);
},
{
pos = (10,-220);
ref = "hamzaabove-ar";
}
);
width = 960;
}
);
unicode = 1574;
},
{
glyphname = "yehHamzaabove-ar.fina";
layers = (
{
anchors = (
{
name = bottom;
pos = (800,0);
},
{
name = top;
pos = (157,600);
}
);
layerId = m01;
shapes = (
{
closed = 1;
nodes = (
(10,-100,o),
(10,-100,o),
(10,125,cs),
(10,481,l),
(310,481,l),
(310,0,l),
(330,0,o),
(330,0,o),
(330,20,cs),
(330,600,l),
(950,600,l),
(950,0,l),
(650,0,l),
(650,280,ls),
(650,300,o),
(650,300,o),
(630,300,c),
(630,-100,l),
(235,-100,ls)
);
},
{
closed = 1;
nodes = (
(960,300,l),
(960,0,l),
(862,0,l),
(862,300,l)
);
},
{
pos = (10,-220);
ref = "hamzaabove-ar";
}
);
width = 960;
}
);
},
{
glyphname = "yehbarree-ar";
layers = (
{
anchors = (
{
name = bottom;
pos = (360,0);
},
{
name = top;
pos = (215,500);
}
);
layerId = m01;
shapes = (
{
closed = 1;
nodes = (
(710,300,l),
(330,300,ls),
(310,300,o),
(310,301,o),
(310,320,c),
(420,320,l),
(420,500,l),
(265,500,ls),
(9,500,o),
(10,500,o),
(10,245,cs),
(10,225,ls),
(10,0,o),
(10,0,o),
(235,0,cs),
(710,0,l)
);
}
);
width = 720;
}
);
unicode = 1746;
},
{
glyphname = "yehbarree-ar.fina";
layers = (
{
anchors = (
{
name = bottom;
pos = (215,-200);
},
{
name = top;
pos = (360,300);
}
);
layerId = m01;
shapes = (
{
closed = 1;
nodes = (
(235,300,ls),
(10,300,o),
(10,300,o),
(10,75,cs),
(10,55,ls),
(10,-200,o),
(9,-200,o),
(265,-200,cs),
(420,-200,l),
(420,-20,l),
(310,-20,l),
(310,-1,o),
(310,0,o),
(330,0,cs),
(710,0,l),
(710,300,l)
);
},
{
closed = 1;
nodes = (
(571,0,l),
(720,0,l),
(720,300,l),
(571,300,l)
);
}
);
width = 720;
}
);
},
{
glyphname = "kashida-ar";
layers = (
{
anchors = (
{
name = bottom;
pos = (150,0);
},
{
name = top;
pos = (150,300);
}
);
layerId = m01;
shapes = (
{
closed = 1;
nodes = (
(0,0,l),
(300,0,l),
(300,300,l),
(0,300,l)
);
},
{
pos = (300,0);
ref = _cap.strokebutt;
scale = (-1,1);
},
{
ref = _cap.strokebutt;
}
);
width = 300;
}
);
unicode = 1600;
},
{
color = 4;
glyphname = "lam_alef-ar";
layers = (
{
anchors = (
{
name = bottom;
pos = (159,0);
},
{
name = top;
pos = (170,700);
}
);
layerId = m01;
shapes = (
{
closed = 1;
nodes = (
(340,300,o),
(340,300,o),
(340,320,cs),
(340,700,l),
(640,700,l),
(640,225,ls),
(640,0,o),
(640,0,o),
(418,0,cs),
(10,0,l),
(10,300,l),
(20,300,l),
(20,700,l),
(320,700,l),
(320,300,l),
(330,300,ls)
);
}
);
width = 650;
}
);
},
{
glyphname = "lam_alef-ar.fina";
layers = (
{
anchors = (
{
name = bottom;
pos = (159,0);
},
{
name = top;
pos = (160,700);
}
);
layerId = m01;
shapes = (
{
closed = 1;
nodes = (
(408,0,ls),
(630,0,o),
(630,0,o),
(630,225,cs),
(630,700,l),
(330,700,l),
(330,320,ls),
(330,300,o),
(330,300,o),
(320,300,c),
(310,300,l),
(310,700,l),
(10,700,l),
(10,0,l)
);
},
{
closed = 1;
nodes = (
(640,0,l),
(640,300,l),
(377,300,l),
(377,0,l)
);
}
);
width = 640;
}
);
},
{
glyphname = "lam_alefHamzaabove-ar";
layers = (
{
anchors = (
{
name = bottom;
pos = (169,0);
},
{
name = top;
pos = (171,700);
}
);
layerId = m01;
shapes = (
{
pos = (20,-120);
ref = "hamzaabove-ar";
},
{
closed = 1;
nodes = (
(340,300,o),
(340,300,o),
(340,320,cs),
(340,700,l),
(640,700,l),
(640,225,ls),
(640,0,o),
(640,0,o),
(418,0,cs),
(20,0,l),
(20,580,l),
(320,580,l),
(320,300,l),
(330,300,l)
);
},
{
closed = 1;
nodes = (
(20,300,l),
(20,0,l),
(10,0,l),
(10,300,l)
);
}
);
width = 650;
}
);
},
{
glyphname = "lam_alefHamzaabove-ar.fina";
layers = (
{
anchors = (
{
name = bottom;
pos = (159,0);
},
{
name = top;
pos = (161,700);
}
);
layerId = m01;
shapes = (
{
pos = (10,-120);
ref = "hamzaabove-ar";
},
{
closed = 1;
nodes = (
(640,300,l),
(640,0,l),
(377,0,l),
(377,300,l)
);
},
{
closed = 1;
nodes = (
(330,300,o),
(330,300,o),
(330,320,cs),
(330,700,l),
(630,700,l),
(630,225,ls),
(630,0,o),
(630,0,o),
(408,0,cs),
(10,0,l),
(10,580,l),
(310,580,l),
(310,300,l),
(320,300,l)
);
}
);
width = 640;
}
);
},
{
glyphname = "lam_alefMadda-ar";
layers = (
{
anchors = (
{
name = bottom;
pos = (330,0);
},
{
name = top;
pos = (170,700);
}
);
layerId = m01;
shapes = (
{
closed = 1;
nodes = (
(418,0,ls),
(640,0,o),
(640,0,o),
(640,225,cs),
(640,700,l),
(340,700,l),
(340,320,ls),
(340,300,o),
(340,300,o),
(330,300,c),
(320,300,l),
(320,600,l),
(20,600,l),
(20,0,l)
);
},
{
pos = (20,-100);
ref = "madda-ar";
},
{
closed = 1;
nodes = (
(10,0,l),
(20,0,l),
(20,300,l),
(10,300,l)
);
}
);
width = 650;
}
);
},
{
glyphname = "lam_alefMadda-ar.fina";
layers = (
{
anchors = (
{
name = bottom;
pos = (330,0);
},
{
name = top;
pos = (170,700);
}
);
layerId = m01;
shapes = (
{
closed = 1;
nodes = (
(408,0,ls),
(630,0,o),
(630,0,o),
(630,225,cs),
(630,700,l),
(330,700,l),
(330,320,ls),
(330,300,o),
(330,300,o),
(320,300,c),
(310,300,l),
(310,600,l),
(10,600,l),
(10,0,l)
);
},
{
closed = 1;
nodes = (
(640,0,l),
(640,300,l),
(377,300,l),
(377,0,l)
);
},
{
pos = (10,-100);
ref = "madda-ar";
}
);
width = 640;
}
);
},
{
glyphname = "lam_alefWasla-ar.fina";
layers = (
{
anchors = (
{
name = bottom;
pos = (159,0);
},
{
name = top;
pos = (160,700);
}
);
layerId = m01;
shapes = (
{
closed = 1;
nodes = (
(408,0,ls),
(630,0,o),
(630,0,o),
(630,225,cs),
(630,700,l),
(330,700,l),
(330,320,ls),
(330,300,o),
(330,300,o),
(320,300,c),
(310,300,l),
(310,580,l),
(10,580,l),
(10,0,l)
);
},
{
closed = 1;
nodes = (
(640,0,l),
(640,300,l),
(377,300,l),
(377,0,l)
);
},
{
pos = (10,-120);
ref = "wasla-ar";
}
);
width = 640;
}
);
metricLeft = "lam_alef-ar.fina";
metricRight = "lam_alef-ar.fina";
},
{
glyphname = "allah-ar";
layers = (
{
anchors = (
{
name = bottom;
pos = (985,0);
},
{
name = top;
pos = (985,700);
}
);
layerId = m01;
shapes = (
{
pos = (1145,0);
ref = "alef-ar";
},
{
pos = (825,0);
ref = _cap.strokebutt;
},
{
closed = 1;
nodes = (
(835,320,ls),
(835,307,o),
(831,300,o),
(825,300,c),
(825,0,l),
(913,0,ls),
(1135,0,o),
(1135,0,o),
(1135,225,cs),
(1135,700,l),
(835,700,l)
);
},
{
closed = 1;
nodes = (
(815,0,l),
(815,700,l),
(515,700,l),
(515,0,l)
);
},
{
pos = (505,0);
ref = _cap.strokebutt;
},
{
closed = 1;
nodes = (
(515,0,l),
(515,300,l),
(505,300,l),
(505,0,l)
);
},
{
closed = 1;
nodes = (
(825,0,l),
(825,300,l),
(815,300,l),
(815,0,l)
);
},
{
pos = (825,0);
ref = _cap.strokebutt;
scale = (-1,1);
},
{
closed = 1;
nodes = (
(505,300,l),
(495,300,l),
(495,319,l),
(495,600,l),
(265,600,ls),
(9,600,o),
(10,600,o),
(10,345,cs),
(10,225,ls),
(10,0,o),
(10,0,o),
(235,0,cs),
(505,0,l)
);
},
{
closed = 1;
nodes = (
(119,300,o),
(119,300,o),
(119,319,c),
(495,319,l),
(495,300,l),
(139,300,ls)
);
},
{
closed = 1;
nodes = (
(368,340,l),
(368,271,l),
(495,271,l),
(495,340,l)
);
},
{
pos = (505,0);
ref = _cap.strokebutt;
scale = (-1,1);
},
{
pos = (515,0);
ref = "shaddaAlefabove-ar";
}
);
width = 1465;
}
);
metricLeft = "heh-ar.fina";
metricRight = "alef-ar";
},
{
glyphname = "thousandseparator-ar";
layers = (
{
layerId = m01;
shapes = (
{
closed = 1;
nodes = (
(49,-100,ls),
(310,-100,o),
(310,-100,o),
(310,145,cs),
(310,290,l),
(10,290,l),
(10,-100,l)
);
}
);
width = 320;
}
);
unicode = 1644;
},
{
glyphname = "zero-ar";
layers = (
{
guides = (
{
pos = (329,100);
},
{
angle = 180;
pos = (320,455);
}
);
layerId = m01;
shapes = (
{
closed = 1;
nodes = (
(329,300,l),
(310,300,l),
(310,455,l),
(329,455,o),
(329,455,o),
(329,435,cs)
);
},
{
closed = 1;
nodes = (
(629,701,o),
(629,700,o),
(374,700,cs),
(235,700,ls),
(10,700,o),
(10,700,o),
(10,475,cs),
(10,225,ls),
(10,0,o),
(10,0,o),
(235,0,cs),
(374,0,ls),
(629,0,o),
(629,-1,o),
(629,255,cs),
(629,445,ls)
);
}
);
width = 639;
},
{
associatedMasterId = m01;
guides = (
{
pos = (329,100);
}
);
layerId = "71AA1241-AD5F-4998-897A-496287641463";
name = test;
shapes = (
{
closed = 1;
nodes = (
(310,600,l),
(329,600,l),
(329,100,l),
(310,100,o),
(310,100,o),
(310,120,cs)
);
},
{
closed = 1;
nodes = (
(629,701,o),
(629,700,o),
(374,700,cs),
(235,700,ls),
(10,700,o),
(10,700,o),
(10,475,cs),
(10,225,ls),
(10,0,o),
(10,0,o),
(235,0,cs),
(374,0,ls),
(629,0,o),
(629,-1,o),
(629,255,cs),
(629,445,ls)
);
}
);
width = 639;
}
);
unicode = 1632;
},
{
glyphname = "one-ar";
layers = (
{
layerId = m01;
shapes = (
{
closed = 1;
nodes = (
(10,700,l),
(10,427,l),
(30,427,l),
(30,0,l),
(108,0,ls),
(330,0,o),
(330,0,o),
(330,225,cs),
(330,700,l)
);
}
);
width = 340;
}
);
unicode = 1633;
},
{
glyphname = "two-ar";
layers = (
{
layerId = m01;
shapes = (
{
closed = 1;
nodes = (
(10,0,l),
(365,0,ls),
(610,0,o),
(610,0,o),
(610,245,cs),
(610,281,l),
(96,281,l),
(96,300,o),
(96,300,o),
(116,300,cs),
(610,300,l),
(610,700,l),
(10,700,l),
(10,420,l),
(490,420,l),
(490,401,o),
(491,401,o),
(471,401,cs),
(10,401,l)
);
}
);
width = 620;
}
);
unicode = 1634;
},
{
glyphname = "three-ar";
layers = (
{
layerId = m01;
shapes = (
{
closed = 1;
nodes = (
(490,300,l),
(490,281,o),
(490,281,o),
(470,281,cs),
(10,281,l),
(10,0,l),
(365,0,ls),
(610,0,o),
(610,0,o),
(610,245,cs),
(610,700,l),
(10,700,l),
(10,420,l),
(490,420,l),
(490,401,o),
(491,401,o),
(471,401,cs),
(10,401,l),
(10,300,l)
);
}
);
width = 620;
}
);
unicode = 1635;
},
{
glyphname = "four-ar";
layers = (
{
layerId = m01;
shapes = (
{
closed = 1;
nodes = (
(320,700,l),
(320,400,l),
(300,400,o),
(300,399,o),
(300,419,cs),
(300,700,l),
(10,700,l),
(10,325,ls),
(10,100,o),
(10,100,o),
(232,100,cs),
(320,100,l),
(320,0,l),
(388,0,ls),
(610,0,o),
(610,0,o),
(610,225,cs),
(610,700,l)
);
}
);
width = 620;
}
);
unicode = 1636;
},
{
glyphname = "five-ar";
layers = (
{
layerId = m01;
shapes = (
{
closed = 1;
nodes = (
(490,300,l),
(490,281,o),
(490,281,o),
(470,281,cs),
(10,281,l),
(12,0,l),
(365,0,ls),
(610,0,o),
(610,0,o),
(610,245,cs),
(610,401,l),
(135,401,ls),
(115,401,o),
(116,401,o),
(116,420,c),
(610,420,l),
(610,700,l),
(10,700,l),
(10,300,l)
);
}
);
width = 620;
}
);
unicode = 1637;
},
{
glyphname = "six-ar";
layers = (
{
guides = (
{
pos = (368,400);
}
);
layerId = m01;
shapes = (
{
closed = 1;
nodes = (
(12,0,l),
(365,0,ls),
(610,0,o),
(610,0,o),
(610,245,cs),
(610,400,l),
(387,400,ls),
(367,400,o),
(368,400,o),
(368,419,c),
(610,419,l),
(610,700,l),
(255,700,ls),
(10,700,o),
(10,700,o),
(10,455,cs),
(10,300,l)
);
},
{
closed = 1;
nodes = (
(320,100,o),
(320,100,o),
(301,100,c),
(301,300,l),
(320,300,l),
(320,120,ls)
);
}
);
width = 620;
}
);
unicode = 1638;
},
{
glyphname = "seven-ar";
layers = (
{
guides = (
{
pos = (422,419);
}
);
layerId = m01;
shapes = (
{
closed = 1;
nodes = (
(256,700,ls),
(11,700,o),
(8,700,o),
(10,455,cs),
(11,300,l),
(301,300,l),
(301,419,l),
(320,419,o),
(320,419,o),
(320,399,cs),
(320,0,l),
(388,0,ls),
(610,0,o),
(610,0,o),
(610,225,cs),
(610,700,l)
);
}
);
width = 620;
}
);
unicode = 1639;
},
{
glyphname = "eight-ar";
layers = (
{
layerId = m01;
shapes = (
{
closed = 1;
nodes = (
(235,281,o),
(235,281,o),
(235,300,c),
(406,300,l),
(406,281,l),
(255,281,ls)
);
},
{
closed = 1;
nodes = (
(630,701,o),
(630,700,o),
(375,700,cs),
(235,700,ls),
(10,700,o),
(10,700,o),
(10,475,cs),
(10,225,ls),
(10,0,o),
(10,0,o),
(235,0,cs),
(375,0,ls),
(630,0,o),
(630,-1,o),
(630,255,cs),
(630,445,ls)
);
},
{
closed = 1;
nodes = (
(406,455,o),
(406,455,o),
(406,436,c),
(235,436,l),
(235,455,l),
(386,455,ls)
);
}
);
width = 640;
}
);
unicode = 1640;
},
{
glyphname = "nine-ar";
layers = (
{
layerId = m01;
shapes = (
{
closed = 1;
nodes = (
(320,50,l),
(320,0,l),
(388,0,ls),
(609,0,o),
(610,0,o),
(610,275,cs),
(610,700,l),
(256,700,ls),
(10,700,o),
(10,700,o),
(10,455,cs),
(10,274,ls),
(10,49,o),
(8,46,o),
(232,49,cs)
);
},
{
closed = 1;
nodes = (
(300,456,o),
(300,455,o),
(320,455,c),
(320,300,l),
(300,300,l),
(300,436,ls)
);
}
);
width = 620;
}
);
unicode = 1641;
},
{
glyphname = .notdef;
layers = (
{
layerId = m01;
shapes = (
{
closed = 1;
nodes = (
(540,245,ls),
(540,7,o),
(533,0,o),
(275,0,cs),
(255,0,ls),
(10,0,o),
(10,0,o),
(10,245,cs),
(10,435,ls),
(10,693,o),
(17,700,o),
(275,700,cs),
(295,700,ls),
(540,700,o),
(540,700,o),
(540,455,cs)
);
},
{
closed = 1;
nodes = (
(275,305,l),
(414,100,l),
(474,100,l),
(305,350,l),
(474,599,l),
(414,599,l),
(275,394,l),
(136,599,l),
(76,599,l),
(245,350,l),
(76,100,l),
(136,100,l)
);
}
);
width = 550;
}
);
},
{
glyphname = "comma-ar";
layers = (
{
layerId = m01;
shapes = (
{
closed = 1;
nodes = (
(273,400,ls),
(10,400,o),
(10,400,o),
(10,155,cs),
(10,0,l),
(310,0,l),
(310,400,l)
);
}
);
width = 320;
}
);
unicode = 1548;
},
{
glyphname = "semicolon-ar";
layers = (
{
layerId = m01;
shapes = (
{
closed = 1;
nodes = (
(310,290,l),
(10,290,l),
(10,245,ls),
(10,0,o),
(10,0,o),
(271,0,cs),
(310,0,l)
);
},
{
closed = 1;
nodes = (
(10,310,l),
(310,310,l),
(310,455,ls),
(310,700,o),
(310,700,o),
(49,700,cs),
(10,700,l)
);
}
);
width = 320;
}
);
unicode = 1563;
},
{
glyphname = "question-ar";
layers = (
{
layerId = m01;
shapes = (
{
closed = 1;
nodes = (
(470,149,l),
(470,300,l),
(310,300,l),
(310,500,l),
(330,500,o),
(330,500,o),
(330,480,cs),
(330,320,l),
(408,320,ls),
(630,320,o),
(630,320,o),
(630,545,cs),
(630,700,l),
(232,700,ls),
(10,700,o),
(10,700,o),
(10,475,cs),
(10,149,l)
);
},
{
closed = 1;
nodes = (
(170,0,l),
(337,0,ls),
(470,0,o),
(470,0,o),
(470,129,c),
(170,129,l)
);
}
);
width = 640;
}
);
unicode = 1567;
},
{
glyphname = "asterisk-ar";
layers = (
{
layerId = m01;
shapes = (
{
closed = 1;
nodes = (
(9,545,o),
(9,544,o),
(54,544,c),
(23,513,l),
(37,499,ls),
(68,467,o),
(69,466,o),
(100,497,c),
(100,453,l),
(120,453,ls),
(165,453,o),
(166,453,o),
(166,496,c),
(196,466,l),
(211,481,ls),
(244,513,o),
(244,513,o),
(211,544,c),
(256,544,l),
(256,564,ls),
(256,609,o),
(256,610,o),
(212,609,c),
(243,640,l),
(229,654,ls),
(198,686,o),
(197,687,o),
(166,656,c),
(166,700,l),
(146,700,ls),
(101,700,o),
(100,700,o),
(100,657,c),
(70,687,l),
(55,672,ls),
(23,641,o),
(22,640,o),
(53,610,c),
(10,610,l),
(10,589,ls)
);
}
);
width = 266;
}
);
unicode = 1645;
},
{
glyphname = "parenleft-ar";
layers = (
{
layerId = m01;
shapes = (
{
closed = 1;
nodes = (
(271,801,ls),
(10,801,o),
(10,801,o),
(10,556,cs),
(10,145,ls),
(10,-100,o),
(10,-100,o),
(271,-100,cs),
(310,-100,l),
(310,-20,l),
(265,-20,l),
(265,721,l),
(310,721,l),
(310,801,l)
);
}
);
width = 310;
}
);
unicode = 64830;
},
{
glyphname = period;
layers = (
{
layerId = m01;
shapes = (
{
closed = 1;
nodes = (
(310,290,l),
(10,290,l),
(10,0,l),
(310,0,l)
);
}
);
width = 320;
}
);
unicode = 46;
},
{
glyphname = colon;
layers = (
{
layerId = m01;
shapes = (
{
closed = 1;
nodes = (
(49,0,ls),
(310,0,o),
(310,0,o),
(310,245,cs),
(310,290,l),
(10,290,l),
(10,0,l)
);
},
{
closed = 1;
nodes = (
(271,600,ls),
(10,600,o),
(10,600,o),
(10,355,cs),
(10,310,l),
(310,310,l),
(310,600,l)
);
}
);
width = 320;
}
);
unicode = 58;
},
{
glyphname = semicolon;
layers = (
{
layerId = m01;
shapes = (
{
closed = 1;
nodes = (
(10,600,l),
(10,310,l),
(310,310,l),
(310,600,l)
);
},
{
closed = 1;
nodes = (
(49,0,ls),
(310,0,o),
(310,0,o),
(310,245,cs),
(310,290,l),
(10,290,l),
(10,0,l)
);
}
);
width = 320;
}
);
unicode = 59;
},
{
glyphname = exclam;
layers = (
{
layerId = m01;
shapes = (
{
closed = 1;
nodes = (
(310,700,l),
(232,700,ls),
(10,700,o),
(10,700,o),
(10,475,cs),
(10,149,l),
(65,149,ls),
(310,149,o),
(310,149,o),
(310,394,cs)
);
},
{
closed = 1;
nodes = (
(10,129,o),
(10,129,o),
(10,0,c),
(177,0,ls),
(310,0,o),
(310,0,o),
(310,129,c),
(142,129,ls)
);
}
);
width = 320;
}
);
unicode = 33;
},
{
glyphname = bullet;
layers = (
{
layerId = m01;
shapes = (
{
closed = 1;
nodes = (
(10,204,l),
(315,204,l),
(315,500,l),
(10,500,l)
);
}
);
width = 325;
}
);
unicode = 8226;
},
{
glyphname = numbersign;
layers = (
{
layerId = m01;
shapes = (
{
closed = 1;
nodes = (
(361,122,l),
(361,0,o),
(361,0,o),
(483,0,cs),
(671,0,l),
(671,120,l),
(691,120,l),
(691,310,l),
(671,310,l),
(671,390,l),
(691,390,l),
(691,580,l),
(671,580,l),
(671,700,o),
(671,700,o),
(549,700,cs),
(361,700,l),
(361,578,l),
(341,578,l),
(341,700,o),
(341,700,o),
(219,700,cs),
(30,700,l),
(30,580,l),
(10,580,l),
(10,390,l),
(30,390,l),
(30,310,l),
(10,310,l),
(10,120,l),
(30,120,l),
(30,0,o),
(30,0,o),
(152,0,cs),
(341,0,l),
(341,122,l)
);
},
{
closed = 1;
nodes = (
(341,390,l),
(361,390,l),
(361,310,l),
(341,310,l)
);
}
);
width = 701;
}
);
unicode = 35;
},
{
glyphname = slash;
layers = (
{
layerId = m01;
shapes = (
{
closed = 1;
nodes = (
(544,700,l),
(520,700,ls),
(275,700,o),
(256,700,o),
(170,455,cs),
(10,2,l),
(52,2,ls),
(298,2,o),
(298,2,o),
(384,247,cs)
);
}
);
width = 554;
}
);
unicode = 47;
},
{
glyphname = hyphen;
layers = (
{
layerId = m01;
shapes = (
{
closed = 1;
nodes = (
(10,220,l),
(265,220,ls),
(510,220,o),
(510,220,o),
(510,465,cs),
(510,500,l),
(255,500,ls),
(10,500,o),
(10,500,o),
(10,255,cs)
);
}
);
width = 520;
}
);
unicode = 45;
},
{
glyphname = endash;
layers = (
{
layerId = m01;
shapes = (
{
closed = 1;
nodes = (
(10,220,l),
(385,220,ls),
(630,220,o),
(630,220,o),
(630,465,cs),
(630,500,l),
(255,500,ls),
(10,500,o),
(10,500,o),
(10,255,cs)
);
}
);
width = 640;
}
);
unicode = 8211;
},
{
glyphname = emdash;
layers = (
{
layerId = m01;
shapes = (
{
closed = 1;
nodes = (
(10,220,l),
(705,220,ls),
(950,220,o),
(950,220,o),
(950,465,cs),
(950,500,l),
(255,500,ls),
(10,500,o),
(10,500,o),
(10,255,cs)
);
}
);
width = 960;
}
);
unicode = 8212;
},
{
glyphname = underscore;
layers = (
{
layerId = m01;
shapes = (
{
closed = 1;
nodes = (
(10,0,l),
(265,0,ls),
(510,0,o),
(510,0,o),
(510,245,cs),
(510,280,l),
(255,280,ls),
(10,280,o),
(10,280,o),
(10,35,cs)
);
}
);
width = 520;
}
);
unicode = 95;
},
{
glyphname = parenleft;
layers = (
{
layerId = m01;
shapes = (
{
closed = 1;
nodes = (
(271,801,ls),
(10,801,o),
(10,801,o),
(10,556,cs),
(10,145,ls),
(10,-100,o),
(10,-100,o),
(271,-100,cs),
(310,-100,l),
(310,-20,l),
(265,-20,l),
(265,721,l),
(310,721,l),
(310,801,l)
);
}
);
width = 320;
}
);
unicode = 40;
},
{
glyphname = braceleft;
layers = (
{
layerId = m01;
shapes = (
{
closed = 1;
nodes = (
(291,801,ls),
(30,801,o),
(30,801,o),
(30,556,cs),
(30,441,l),
(10,441,l),
(10,261,l),
(30,261,l),
(30,145,ls),
(30,-100,o),
(30,-100,o),
(291,-100,cs),
(330,-100,l),
(330,-20,l),
(285,-20,l),
(285,261,l),
(265,261,l),
(265,441,l),
(285,441,l),
(285,721,l),
(330,721,l),
(330,801,l)
);
}
);
width = 340;
}
);
unicode = 123;
},
{
glyphname = bracketleft;
layers = (
{
layerId = m01;
shapes = (
{
closed = 1;
nodes = (
(10,-100,l),
(310,-100,l),
(310,-20,l),
(265,-20,l),
(265,721,l),
(310,721,l),
(310,801,l),
(10,800,l)
);
}
);
width = 320;
}
);
unicode = 91;
},
{
glyphname = quoteleft;
layers = (
{
layerId = m01;
shapes = (
{
closed = 1;
nodes = (
(47,300,ls),
(310,300,o),
(310,300,o),
(310,545,cs),
(310,700,l),
(10,700,l),
(10,300,l)
);
}
);
width = 320;
}
);
unicode = 8216;
},
{
glyphname = "perthousand-ar";
layers = (
{
layerId = m01;
shapes = (
{
closed = 1;
nodes = (
(544,700,l),
(520,700,ls),
(275,700,o),
(256,700,o),
(170,455,cs),
(10,2,l),
(52,2,ls),
(298,2,o),
(298,2,o),
(384,247,cs)
);
},
{
closed = 1;
nodes = (
(232,686,o),
(236,700,o),
(143,700,cs),
(37,700,l),
(37,500,l),
(166,500,l),
(190,568,ls)
);
},
{
closed = 1;
nodes = (
(323,14,o),
(319,0,o),
(412,0,cs),
(518,0,l),
(518,200,l),
(389,200,l),
(365,132,ls)
);
},
{
closed = 1;
nodes = (
(733,186,o),
(737,200,o),
(644,200,cs),
(538,200,l),
(538,0,l),
(667,0,l),
(691,68,ls)
);
}
);
width = 729;
}
);
unicode = 1545;
},
{
glyphname = at;
layers = (
{
guides = (
{
pos = (207,700);
}
);
layerId = m01;
shapes = (
{
closed = 1;
nodes = (
(318,530,ls),
(180,530,o),
(180,530,o),
(180,392,cs),
(180,308,ls),
(180,169,o),
(180,170,o),
(318,170,cs),
(344,170,l),
(344,180,ls),
(344,200,o),
(344,200,o),
(364,200,c),
(364,170,l),
(700,170,l),
(700,550,ls),
(700,700,o),
(700,700,o),
(547,700,cs),
(163,700,ls),
(10,700,o),
(10,700,o),
(10,550,cs),
(10,150,ls),
(10,0,o),
(11,0,o),
(160,0,cs),
(547,0,ls),
(700,0,o),
(700,0,o),
(700,150,c),
(160,150,l),
(160,550,l),
(550,550,l),
(550,284,l),
(530,284,l),
(530,530,l)
);
},
{
closed = 1;
nodes = (
(344,396,ls),
(344,416,o),
(344,416,o),
(364,416,c),
(364,300,l),
(344,300,l)
);
}
);
width = 710;
}
);
unicode = 64;
},
{
glyphname = ampersand;
layers = (
{
layerId = m01;
shapes = (
{
closed = 1;
nodes = (
(10,245,ls),
(10,0,o),
(10,0,o),
(255,0,cs),
(650,0,l),
(650,200,l),
(630,200,l),
(630,270,l),
(650,270,l),
(650,400,l),
(630,400,l),
(630,480,l),
(330,480,l),
(330,400,l),
(310,400,o),
(310,400,o),
(310,420,cs),
(310,500,l),
(630,500,l),
(629,700,o),
(614,700,o),
(385,700,cs),
(255,700,ls),
(10,700,o),
(10,700,o),
(10,455,cs)
);
},
{
closed = 1;
nodes = (
(330,200,l),
(310,200,o),
(310,200,o),
(310,220,cs),
(310,270,l),
(330,270,l)
);
}
);
width = 660;
}
);
unicode = 38;
},
{
glyphname = paragraph;
layers = (
{
layerId = m01;
shapes = (
{
closed = 1;
nodes = (
(10,100,o),
(10,100,o),
(255,100,cs),
(310,100,l),
(310,700,l),
(255,700,ls),
(10,700,o),
(10,701,o),
(10,355,cs),
(10,345,ls)
);
},
{
closed = 1;
nodes = (
(630,0,l),
(630,700,l),
(330,700,l),
(330,0,l)
);
}
);
width = 640;
}
);
unicode = 182;
},
{
glyphname = section;
layers = (
{
anchors = (
{
name = bottom;
pos = (290,-100);
},
{
name = celida;
pos = (187,-100);
},
{
name = top;
pos = (290,700);
}
);
layerId = m01;
shapes = (
{
closed = 1;
nodes = (
(630,0,l),
(630,555,ls),
(630,800,o),
(630,800,o),
(385,800,cs),
(305,800,l),
(305,720,l),
(330,720,l),
(330,0,l)
);
},
{
closed = 1;
nodes = (
(10,700,l),
(10,145,ls),
(10,-100,o),
(10,-100,o),
(255,-100,cs),
(335,-100,l),
(335,-20,l),
(310,-20,l),
(310,700,l)
);
}
);
width = 640;
}
);
unicode = 167;
},
{
glyphname = copyright;
layers = (
{
anchors = (
{
name = bottom;
pos = (641,0);
},
{
name = top;
pos = (641,600);
}
);
layerId = m01;
shapes = (
{
closed = 1;
nodes = (
(325,2,ls),
(615,2,o),
(610,69,o),
(610,297,cs),
(610,323,ls),
(610,579,o),
(588,601,o),
(325,601,cs),
(295,601,ls),
(32,601,o),
(10,579,o),
(10,316,cs),
(10,286,ls),
(10,24,o),
(32,2,o),
(295,2,cs)
);
},
{
closed = 1;
nodes = (
(57,42,o),
(50,49,o),
(50,286,cs),
(50,316,ls),
(50,554,o),
(57,561,o),
(295,561,cs),
(325,561,ls),
(563,561,o),
(570,554,o),
(570,323,cs),
(570,297,ls),
(570,67,o),
(572,42,o),
(325,42,cs),
(295,42,ls)
);
},
{
closed = 1;
nodes = (
(550,541,o),
(550,548,o),
(550,320,c),
(330,320,l),
(330,345,l),
(310,345,l),
(310,275,ls),
(310,257,o),
(310,257,o),
(330,257,c),
(330,300,l),
(550,300,l),
(550,68,o),
(550,62,o),
(325,62,cs),
(295,62,ls),
(70,62,o),
(70,62,o),
(70,286,cs),
(70,316,ls),
(70,541,o),
(70,541,o),
(295,541,cs),
(325,541,ls)
);
}
);
width = 620;
}
);
unicode = 169;
},
{
glyphname = registered;
layers = (
{
layerId = m01;
shapes = (
{
closed = 1;
nodes = (
(327,160,ls),
(528,160,o),
(550,182,o),
(550,375,cs),
(550,485,ls),
(550,678,o),
(528,700,o),
(327,700,cs),
(233,700,ls),
(32,700,o),
(10,678,o),
(10,477,cs),
(10,383,ls),
(10,182,o),
(32,160,o),
(233,160,cs)
);
},
{
closed = 1;
nodes = (
(57,200,o),
(50,207,o),
(50,383,cs),
(50,477,ls),
(50,653,o),
(57,660,o),
(233,660,cs),
(327,660,ls),
(503,660,o),
(510,653,o),
(510,485,cs),
(510,375,ls),
(510,207,o),
(503,200,o),
(327,200,cs),
(233,200,ls)
);
},
{
closed = 1;
nodes = (
(260,220,l),
(260,395,l),
(280,395,l),
(280,220,l),
(327,220,ls),
(490,220,o),
(490,240,o),
(490,395,c),
(360,395,ls),
(340,395,o),
(340,396,o),
(340,415,c),
(490,415,l),
(490,660,o),
(490,640,o),
(245,640,cs),
(243,640,ls),
(70,640,o),
(70,640,o),
(70,467,cs),
(70,383,ls),
(70,220,o),
(70,220,o),
(233,220,cs)
);
},
{
closed = 1;
nodes = (
(260,492,l),
(280,492,o),
(280,492,o),
(280,472,cs),
(280,415,l),
(260,415,l)
);
}
);
width = 560;
}
);
unicode = 174;
},
{
glyphname = degree;
layers = (
{
layerId = m01;
shapes = (
{
closed = 1;
nodes = (
(10,556,ls),
(10,474,o),
(10,474,o),
(92,474,cs),
(158,474,ls),
(240,474,o),
(240,474,o),
(240,556,cs),
(240,619,ls),
(240,701,o),
(240,701,o),
(158,701,cs),
(92,701,ls),
(10,701,o),
(10,701,o),
(10,619,cs)
);
},
{
closed = 1;
nodes = (
(115,598,l),
(135,598,l),
(135,578,l),
(115,578,l)
);
}
);
width = 250;
}
);
unicode = 176;
},
{
glyphname = bar;
layers = (
{
layerId = m01;
shapes = (
{
closed = 1;
nodes = (
(10,-100,l),
(310,-100,l),
(310,801,l),
(10,800,l)
);
}
);
width = 320;
}
);
unicode = 124;
},
{
glyphname = cent;
layers = (
{
layerId = m01;
shapes = (
{
ref = c;
},
{
closed = 1;
nodes = (
(160,493,l),
(460,493,l),
(460,620,l),
(160,620,l)
);
},
{
closed = 1;
nodes = (
(160,-20,l),
(460,-20,l),
(460,107,l),
(160,107,l)
);
}
);
width = 620;
}
);
unicode = 162;
},
{
glyphname = dollar;
layers = (
{
layerId = m01;
shapes = (
{
closed = 1;
nodes = (
(10,250,l),
(424,250,l),
(424,230,o),
(425,230,o),
(405,230,cs),
(10,230,l),
(10,0,l),
(151,0,l),
(151,-20,l),
(451,-20,l),
(451,1,l),
(610,4,o),
(610,33,o),
(610,245,cs),
(610,430,l),
(215,430,ls),
(195,430,o),
(196,430,o),
(196,450,c),
(610,450,l),
(610,700,l),
(460,700,l),
(460,719,l),
(160,719,l),
(160,700,l),
(10,700,l)
);
}
);
width = 620;
}
);
unicode = 36;
},
{
glyphname = euro;
layers = (
{
anchors = (
{
name = bottom;
pos = (340,0);
},
{
name = top;
pos = (340,700);
}
);
layerId = m01;
shapes = (
{
closed = 1;
nodes = (
(405,0,ls),
(650,0,o),
(650,0,o),
(650,245,cs),
(650,300,l),
(330,300,l),
(330,320,l),
(650,320,l),
(650,419,l),
(330,419,l),
(330,439,l),
(650,439,l),
(650,455,ls),
(650,700,o),
(650,700,o),
(405,700,cs),
(275,700,ls),
(68,700,o),
(36,700,o),
(31,552,c),
(10,552,l),
(10,419,l),
(30,419,l),
(30,320,l),
(10,320,l),
(10,187,l),
(30,187,l),
(32,0,o),
(51,0,o),
(275,0,cs)
);
}
);
width = 660;
}
);
unicode = 8364;
},
{
glyphname = sterling;
layers = (
{
anchors = (
{
name = bottom;
pos = (230,0);
},
{
name = center;
pos = (230,350);
},
{
name = top;
pos = (230,700);
},
{
name = topright;
pos = (420,700);
}
);
layerId = m01;
shapes = (
{
closed = 1;
nodes = (
(30,380,l),
(10,380,l),
(10,320,l),
(30,320,l),
(30,300,l),
(10,300,l),
(10,245,ls),
(10,0,o),
(10,0,o),
(255,0,cs),
(451,0,l),
(451,300,l),
(330,300,l),
(330,320,l),
(430,320,l),
(430,380,l),
(330,380,l),
(330,400,l),
(430,400,l),
(430,700,l),
(253,700,ls),
(30,700,o),
(30,692,o),
(30,455,cs)
);
}
);
width = 461;
}
);
unicode = 163;
},
{
glyphname = yen;
layers = (
{
layerId = m01;
shapes = (
{
closed = 1;
nodes = (
(203,206,l),
(203,339,l),
(10,339,l),
(10,206,l)
);
},
{
closed = 1;
nodes = (
(203,359,l),
(203,492,l),
(10,492,l),
(10,359,l)
);
},
{
closed = 1;
nodes = (
(670,206,l),
(670,339,l),
(477,339,l),
(477,206,l)
);
},
{
closed = 1;
nodes = (
(670,359,l),
(670,492,l),
(477,492,l),
(477,359,l)
);
},
{
pos = (20,0);
ref = Y;
}
);
width = 680;
}
);
unicode = 165;
},
{
glyphname = plus;
layers = (
{
layerId = m01;
shapes = (
{
closed = 1;
nodes = (
(270,700,l),
(270,440,l),
(10,440,l),
(10,342,ls),
(10,260,o),
(10,260,o),
(92,260,cs),
(270,260,l),
(270,82,ls),
(270,0,o),
(270,0,o),
(352,0,cs),
(450,0,l),
(450,260,l),
(710,260,l),
(710,358,ls),
(710,440,o),
(710,440,o),
(628,440,cs),
(450,440,l),
(450,618,ls),
(450,700,o),
(450,700,o),
(368,700,cs)
);
}
);
width = 720;
}
);
unicode = 43;
},
{
glyphname = minus;
layers = (
{
layerId = m01;
shapes = (
{
closed = 1;
nodes = (
(10,440,o),
(10,440,o),
(10,260,c),
(365,260,ls),
(610,260,o),
(610,260,o),
(610,440,c),
(255,440,ls)
);
}
);
width = 620;
}
);
unicode = 8722;
},
{
glyphname = multiply;
layers = (
{
layerId = m01;
shapes = (
{
closed = 1;
nodes = (
(505,661,l),
(321,477,l),
(195,603,ls),
(137,661,o),
(137,661,o),
(79,603,cs),
(10,534,l),
(194,350,l),
(68,224,ls),
(10,166,o),
(10,166,o),
(68,108,cs),
(137,39,l),
(321,223,l),
(447,97,ls),
(505,39,o),
(505,39,o),
(563,97,cs),
(632,166,l),
(448,350,l),
(574,476,ls),
(632,534,o),
(632,534,o),
(574,592,cs)
);
}
);
width = 642;
}
);
unicode = 215;
},
{
glyphname = divide;
layers = (
{
layerId = m01;
shapes = (
{
closed = 1;
nodes = (
(10,260,l),
(610,260,l),
(610,440,l),
(10,440,l)
);
},
{
closed = 1;
nodes = (
(220,600,l),
(220,460,l),
(400,460,l),
(400,600,l)
);
},
{
closed = 1;
nodes = (
(220,240,l),
(220,100,l),
(400,100,l),
(400,240,l)
);
}
);
width = 620;
}
);
unicode = 247;
},
{
glyphname = equal;
layers = (
{
layerId = m01;
shapes = (
{
closed = 1;
nodes = (
(10,360,l),
(610,360,l),
(610,540,l),
(10,540,l)
);
},
{
closed = 1;
nodes = (
(10,160,l),
(610,160,l),
(610,340,l),
(10,340,l)
);
}
);
width = 620;
}
);
unicode = 61;
},
{
glyphname = greater;
layers = (
{
layerId = m01;
shapes = (
{
closed = 1;
nodes = (
(448,350,l),
(195,603,ls),
(137,661,o),
(137,661,o),
(79,603,cs),
(10,534,l),
(194,350,l),
(68,224,ls),
(10,166,o),
(10,166,o),
(68,108,cs),
(137,39,l)
);
}
);
width = 458;
}
);
unicode = 62;
},
{
glyphname = asciitilde;
layers = (
{
layerId = m01;
shapes = (
{
closed = 1;
nodes = (
(404,429,o),
(386,429,o),
(344,429,cs),
(223,429,ls),
(10,429,o),
(10,429,o),
(10,219,c),
(362,219,ls),
(393,219,o),
(404,244,o),
(418,275,cs),
(424,289,o),
(442,289,o),
(484,289,cs),
(681,289,ls),
(894,289,o),
(894,289,o),
(894,499,c),
(466,499,ls),
(435,499,o),
(424,474,o),
(411,443,cs)
);
}
);
width = 904;
}
);
unicode = 126;
},
{
glyphname = asciicircum;
layers = (
{
layerId = m01;
shapes = (
{
closed = 1;
nodes = (
(206,700,ls),
(174,700,o),
(175,700,o),
(158,674,cs),
(10,443,l),
(109,443,ls),
(141,443,o),
(140,443,o),
(157,469,cs),
(265,637,l),
(373,469,ls),
(390,443,o),
(389,443,o),
(421,443,cs),
(520,443,l),
(372,674,ls),
(355,700,o),
(356,700,o),
(324,700,cs)
);
}
);
width = 530;
}
);
unicode = 94;
},
{
glyphname = percent;
layers = (
{
layerId = m01;
shapes = (
{
closed = 1;
nodes = (
(544,700,l),
(520,700,ls),
(275,700,o),
(256,700,o),
(170,455,cs),
(10,2,l),
(52,2,ls),
(298,2,o),
(298,2,o),
(384,247,cs)
);
},
{
closed = 1;
nodes = (
(232,686,o),
(236,700,o),
(143,700,cs),
(37,700,l),
(37,500,l),
(166,500,l),
(190,568,ls)
);
},
{
closed = 1;
nodes = (
(323,14,o),
(319,1,o),
(412,0,cs),
(518,0,l),
(518,200,l),
(389,200,l),
(365,132,ls)
);
}
);
width = 554;
}
);
unicode = 37;
},
{
glyphname = "tahabove-ar";
layers = (
{
anchors = (
{
name = _top;
pos = (293,700);
},
{
name = top;
pos = (293,840);
}
);
layerId = m01;
shapes = (
{
closed = 1;
nodes = (
(143,720,l),
(443,720,l),
(443,820,o),
(443,820,o),
(314,820,cs),
(189,820,o),
(156,820,o),
(153,760,c),
(143,760,l)
);
},
{
closed = 1;
nodes = (
(255,760,l),
(255,775,l),
(341,775,l),
(341,760,l)
);
},
{
closed = 1;
nodes = (
(153,760,l),
(255,760,l),
(255,840,l),
(153,840,l)
);
}
);
width = 600;
}
);
unicode = 1557;
},
{
glyphname = "dotabove-ar";
layers = (
{
anchors = (
{
name = _top;
pos = (70,600);
},
{
name = top;
pos = (70,700);
}
);
layerId = m01;
shapes = (
{
closed = 1;
nodes = (
(0,620,l),
(140,620,l),
(140,700,l),
(0,700,l)
);
}
);
width = 140;
}
);
},
{
glyphname = "dotbelow-ar";
layers = (
{
anchors = (
{
name = _bottom;
pos = (70,0);
},
{
name = bottom;
pos = (70,-100);
}
);
layerId = m01;
shapes = (
{
closed = 1;
nodes = (
(0,-100,l),
(140,-100,l),
(140,-20,l),
(0,-20,l)
);
}
);
width = 140;
}
);
},
{
glyphname = "twodotsverticalabove-ar";
layers = (
{
anchors = (
{
name = _top;
pos = (150,600);
},
{
name = top;
pos = (150,700);
}
);
layerId = m01;
shapes = (
{
closed = 1;
nodes = (
(0,620,l),
(140,620,l),
(140,700,l),
(0,700,l)
);
},
{
closed = 1;
nodes = (
(160,620,l),
(300,620,l),
(300,700,l),
(160,700,l)
);
}
);
width = 300;
}
);
},
{
glyphname = "twodotsverticalbelow-ar";
layers = (
{
anchors = (
{
name = _bottom;
pos = (150,0);
},
{
name = bottom;
pos = (150,-100);
}
);
layerId = m01;
shapes = (
{
closed = 1;
nodes = (
(0,-100,l),
(140,-100,l),
(140,-20,l),
(0,-20,l)
);
},
{
closed = 1;
nodes = (
(160,-100,l),
(300,-100,l),
(300,-20,l),
(160,-20,l)
);
}
);
width = 300;
}
);
},
{
glyphname = "wasla-ar";
layers = (
{
anchors = (
{
name = _top;
pos = (150,700);
},
{
name = top;
pos = (150,820);
}
);
layerId = m01;
shapes = (
{
closed = 1;
nodes = (
(77,820,l),
(0,820,l),
(0,720,l),
(300,720,l),
(300,820,l),
(193,820,ls),
(112,820,o),
(99,820,o),
(97,760,c),
(77,760,l)
);
},
{
closed = 1;
nodes = (
(176,760,l),
(176,766,ls),
(176,772,o),
(175,772,o),
(210,772,cs),
(224,772,l),
(224,760,l)
);
}
);
width = 600;
}
);
},
{
glyphname = "alefabove-ar";
layers = (
{
anchors = (
{
name = _top;
pos = (40,700);
},
{
name = top;
pos = (40,859);
}
);
layerId = m01;
shapes = (
{
closed = 1;
nodes = (
(0,720,l),
(80,720,l),
(80,859,l),
(0,859,l)
);
}
);
width = 80;
}
);
unicode = 1648;
},
{
glyphname = "alefbelow-ar";
layers = (
{
anchors = (
{
name = _bottom;
pos = (40,0);
},
{
name = bottom;
pos = (40,-160);
}
);
layerId = m01;
shapes = (
{
closed = 1;
nodes = (
(0,-160,l),
(80,-160,l),
(80,-20,l),
(0,-20,l)
);
}
);
width = 80;
}
);
unicode = 1622;
},
{
glyphname = "hamzaabove-ar";
layers = (
{
anchors = (
{
name = _top;
pos = (150,700);
},
{
name = top;
pos = (150,820);
}
);
layerId = m01;
shapes = (
{
closed = 1;
nodes = (
(210,820,ls),
(0,820,o),
(0,822,o),
(0,720,c),
(300,720,l),
(300,764,l),
(225,764,ls),
(210,764,o),
(210,764,o),
(210,780,c),
(300,780,l),
(300,820,l)
);
}
);
width = 300;
}
);
unicode = 1620;
},
{
glyphname = "hamzabelow-ar";
layers = (
{
anchors = (
{
name = _bottom;
pos = (150,0);
},
{
name = bottom;
pos = (150,-110);
}
);
layerId = m01;
shapes = (
{
closed = 1;
nodes = (
(210,-20,ls),
(0,-20,o),
(0,-27,o),
(0,-110,c),
(300,-110,l),
(300,-59,l),
(210,-59,l),
(210,-49,l),
(300,-49,l),
(300,-20,l)
);
}
);
width = 300;
}
);
unicode = 1621;
},
{
glyphname = "fathatan-ar";
layers = (
{
anchors = (
{
name = _top;
pos = (150,700);
},
{
name = top;
pos = (150,820);
}
);
layerId = m01;
shapes = (
{
closed = 1;
nodes = (
(0,780,l),
(300,780,l),
(300,820,l),
(0,820,l)
);
},
{
closed = 1;
nodes = (
(0,720,l),
(300,720,l),
(300,764,l),
(0,764,l)
);
}
);
width = 300;
}
);
unicode = 1611;
},
{
glyphname = "dammatan-ar";
layers = (
{
anchors = (
{
name = _top;
pos = (150,700);
},
{
name = top;
pos = (150,820);
}
);
layerId = m01;
shapes = (
{
closed = 1;
nodes = (
(87,820,l),
(0,820,l),
(0,780,l),
(10,780,l),
(10,720,l),
(300,720,l),
(300,820,l),
(203,820,ls),
(122,820,o),
(109,820,o),
(107,760,c),
(87,760,l)
);
},
{
closed = 1;
nodes = (
(186,760,l),
(186,766,ls),
(186,772,o),
(185,772,o),
(210,772,cs),
(224,772,l),
(224,760,l)
);
}
);
width = 300;
}
);
unicode = 1612;
},
{
glyphname = "kasratan-ar";
layers = (
{
anchors = (
{
name = _bottom;
pos = (150,-180);
},
{
name = bottom;
pos = (150,-300);
}
);
layerId = m01;
shapes = (
{
closed = 1;
nodes = (
(0,-244,l),
(300,-244,l),
(300,-200,l),
(0,-200,l)
);
},
{
closed = 1;
nodes = (
(0,-300,l),
(300,-300,l),
(300,-260,l),
(0,-260,l)
);
}
);
width = 300;
}
);
unicode = 1613;
},
{
glyphname = "fatha-ar";
layers = (
{
anchors = (
{
name = _top;
pos = (150,700);
},
{
name = top;
pos = (150,764);
}
);
layerId = m01;
shapes = (
{
closed = 1;
nodes = (
(0,720,l),
(300,720,l),
(300,764,l),
(0,764,l)
);
}
);
width = 300;
}
);
unicode = 1614;
},
{
glyphname = "damma-ar";
layers = (
{
anchors = (
{
name = _top;
pos = (150,700);
},
{
name = top;
pos = (150,820);
}
);
layerId = m01;
shapes = (
{
closed = 1;
nodes = (
(0,720,l),
(300,720,l),
(300,820,l),
(171,820,ls),
(61,820,o),
(44,820,o),
(41,760,c),
(0,760,l)
);
},
{
closed = 1;
nodes = (
(143,760,l),
(143,767,ls),
(143,775,o),
(143,775,o),
(177,775,cs),
(198,775,l),
(198,760,l)
);
}
);
width = 300;
}
);
unicode = 1615;
},
{
glyphname = "kasra-ar";
layers = (
{
anchors = (
{
name = _bottom;
pos = (150,0);
},
{
name = bottom;
pos = (150,-64);
}
);
layerId = m01;
shapes = (
{
closed = 1;
nodes = (
(0,-64,l),
(300,-64,l),
(300,-20,l),
(0,-20,l)
);
}
);
width = 300;
}
);
unicode = 1616;
},
{
glyphname = "shadda-ar";
layers = (
{
anchors = (
{
name = _top;
pos = (150,700);
},
{
name = top;
pos = (150,800);
}
);
layerId = m01;
shapes = (
{
closed = 1;
nodes = (
(0,720,l),
(300,720,l),
(300,800,l),
(206,800,l),
(206,770,ls),
(206,750,o),
(206,750,o),
(190,750,c),
(190,800,l),
(110,800,l),
(110,750,l),
(94,750,o),
(94,750,o),
(94,770,cs),
(94,800,l),
(0,800,l)
);
}
);
width = 300;
}
);
unicode = 1617;
},
{
glyphname = "sukun-ar";
layers = (
{
anchors = (
{
name = _top;
pos = (150,700);
},
{
name = top;
pos = (150,800);
}
);
layerId = m01;
shapes = (
{
closed = 1;
nodes = (
(0,720,o),
(0,720,o),
(41,720,cs),
(259,720,ls),
(300,720,o),
(300,720,o),
(300,760,cs),
(300,800,o),
(300,800,o),
(259,800,cs),
(41,800,ls),
(0,800,o),
(0,800,o),
(0,760,cs)
);
},
{
closed = 1;
nodes = (
(195,768,o),
(195,768,o),
(195,752,c),
(120,752,ls),
(105,753,o),
(105,752,o),
(105,768,c),
(180,768,ls)
);
}
);
width = 300;
}
);
unicode = 1618;
},
{
glyphname = "madda-ar";
layers = (
{
anchors = (
{
name = _top;
pos = (150,700);
},
{
name = top;
pos = (150,800);
}
);
layerId = m01;
shapes = (
{
closed = 1;
nodes = (
(147,780,o),
(142,780,o),
(130,780,cs),
(61,780,ls),
(0,780,o),
(0,780,o),
(0,720,c),
(135,720,ls),
(144,720,o),
(147,727,o),
(151,736,cs),
(153,740,o),
(158,740,o),
(170,740,cs),
(239,740,ls),
(300,740,o),
(300,740,o),
(300,800,c),
(165,800,ls),
(156,800,o),
(153,793,o),
(149,784,cs)
);
}
);
width = 300;
}
);
unicode = 1619;
},
{
glyphname = "noonghunnaabove-ar";
layers = (
{
anchors = (
{
name = _top;
pos = (150,700);
},
{
name = top;
pos = (150,800);
}
);
layerId = m01;
shapes = (
{
closed = 1;
nodes = (
(0,800,l),
(0,720,l),
(300,720,l),
(300,800,l)
);
},
{
closed = 1;
nodes = (
(158,800,l),
(158,770,ls),
(158,750,o),
(158,750,o),
(142,750,c),
(142,800,l)
);
}
);
width = 600;
}
);
unicode = 1624;
},
{
glyphname = dieresiscomb;
layers = (
{
anchors = (
{
name = _top;
pos = (160,700);
},
{
name = top;
pos = (160,799);
}
);
layerId = m01;
shapes = (
{
closed = 1;
nodes = (
(10,719,l),
(150,719,l),
(150,799,l),
(10,799,l)
);
},
{
closed = 1;
nodes = (
(170,719,l),
(310,719,l),
(310,799,l),
(170,799,l)
);
}
);
width = 320;
}
);
unicode = 776;
},
{
glyphname = dotaccentcomb;
layers = (
{
anchors = (
{
name = _top;
pos = (80,700);
},
{
name = top;
pos = (80,800);
}
);
layerId = m01;
shapes = (
{
closed = 1;
nodes = (
(10,720,l),
(150,720,l),
(150,800,l),
(10,800,l)
);
}
);
width = 160;
}
);
unicode = 775;
},
{
glyphname = acutecomb;
layers = (
{
anchors = (
{
name = _top;
pos = (65,700);
},
{
name = top;
pos = (100,861);
}
);
layerId = m01;
shapes = (
{
closed = 1;
nodes = (
(131,861,ls),
(99,861,o),
(99,861,o),
(83,835,cs),
(10,720,l),
(59,720,ls),
(91,720,o),
(91,720,o),
(107,746,cs),
(180,861,l)
);
}
);
width = 190;
}
);
unicode = 769;
},
{
glyphname = caroncomb.alt;
layers = (
{
anchors = (
{
name = _top;
pos = (50,670);
},
{
name = top;
pos = (51,861);
}
);
layerId = m01;
shapes = (
{
closed = 1;
nodes = (
(10,691,l),
(50,691,ls),
(91,691,o),
(91,691,o),
(91,732,cs),
(91,861,l),
(51,861,ls),
(10,861,o),
(10,861,o),
(10,820,cs)
);
}
);
width = 101;
}
);
},
{
glyphname = circumflexcomb;
layers = (
{
anchors = (
{
name = _top;
pos = (140,700);
},
{
name = top;
pos = (140,861);
}
);
layerId = m01;
shapes = (
{
closed = 1;
nodes = (
(197,835,ls),
(181,861,o),
(181,861,o),
(149,861,cs),
(131,861,ls),
(99,861,o),
(99,861,o),
(83,835,cs),
(10,720,l),
(59,720,ls),
(91,720,o),
(91,720,o),
(107,746,cs),
(140,798,l),
(173,746,ls),
(189,720,o),
(189,720,o),
(221,720,cs),
(270,720,l)
);
}
);
width = 280;
}
);
unicode = 770;
},
{
glyphname = caroncomb;
layers = (
{
anchors = (
{
name = _top;
pos = (140,700);
},
{
name = top;
pos = (140,861);
}
);
layerId = m01;
shapes = (
{
closed = 1;
nodes = (
(221,861,ls),
(189,861,o),
(189,861,o),
(173,835,cs),
(140,783,l),
(107,835,ls),
(91,861,o),
(91,861,o),
(59,861,cs),
(10,861,l),
(83,746,ls),
(99,720,o),
(99,720,o),
(131,720,cs),
(149,720,ls),
(181,720,o),
(181,720,o),
(197,746,cs),
(270,861,l)
);
}
);
width = 280;
}
);
unicode = 780;
},
{
glyphname = brevecomb;
layers = (
{
anchors = (
{
name = _top;
pos = (120,700);
},
{
name = top;
pos = (120,800);
}
);
layerId = m01;
shapes = (
{
closed = 1;
nodes = (
(10,720,o),
(10,720,o),
(51,720,cs),
(189,720,ls),
(230,720,o),
(230,720,o),
(230,760,cs),
(230,800,o),
(230,800,o),
(189,800,cs),
(131,800,l),
(131,752,l),
(110,752,l),
(110,800,l),
(51,800,ls),
(10,800,o),
(10,800,o),
(10,760,cs)
);
}
);
width = 240;
}
);
unicode = 774;
},
{
glyphname = ringcomb;
layers = (
{
anchors = (
{
name = _top;
pos = (160,700);
}
);
layerId = m01;
shapes = (
{
closed = 1;
nodes = (
(10,720,o),
(10,720,o),
(51,720,cs),
(269,720,ls),
(310,720,o),
(310,720,o),
(310,760,cs),
(310,800,o),
(310,800,o),
(269,800,cs),
(51,800,ls),
(10,800,o),
(10,800,o),
(10,760,cs)
);
},
{
closed = 1;
nodes = (
(205,768,o),
(205,768,o),
(205,752,c),
(130,752,ls),
(115,752,o),
(115,752,o),
(115,768,c),
(190,768,ls)
);
}
);
width = 320;
}
);
unicode = 778;
},
{
glyphname = tildecomb;
layers = (
{
anchors = (
{
name = _top;
pos = (160,700);
},
{
name = top;
pos = (160,800);
}
);
layerId = m01;
shapes = (
{
closed = 1;
nodes = (
(157,780,o),
(152,780,o),
(140,780,cs),
(71,780,ls),
(10,780,o),
(10,780,o),
(10,720,c),
(145,720,ls),
(154,720,o),
(157,727,o),
(161,736,cs),
(163,740,o),
(168,740,o),
(180,740,cs),
(249,740,ls),
(310,740,o),
(310,740,o),
(310,800,c),
(175,800,ls),
(166,800,o),
(163,793,o),
(159,784,cs)
);
}
);
width = 320;
}
);
unicode = 771;
},
{
glyphname = macroncomb;
layers = (
{
anchors = (
{
name = _top;
pos = (160,700);
},
{
name = top;
pos = (160,800);
}
);
layerId = m01;
shapes = (
{
closed = 1;
nodes = (
(10,720,l),
(310,720,l),
(310,800,l),
(10,800,l)
);
}
);
width = 320;
}
);
unicode = 772;
},
{
glyphname = commaturnedabovecomb;
layers = (
{
anchors = (
{
name = _top;
pos = (50,700);
},
{
name = top;
pos = (51,891);
}
);
layerId = m01;
shapes = (
{
closed = 1;
nodes = (
(10,721,l),
(50,721,ls),
(91,721,o),
(91,721,o),
(91,762,cs),
(91,861,l),
(30,861,l),
(30,871,l),
(91,871,l),
(91,891,l),
(51,891,ls),
(10,891,o),
(10,891,o),
(10,850,cs)
);
}
);
width = 101;
}
);
unicode = 786;
},
{
glyphname = cedillacomb;
layers = (
{
anchors = (
{
name = _cedilla;
pos = (60,0);
},
{
name = bottom;
pos = (120,-216);
}
);
layerId = m01;
shapes = (
{
closed = 1;
nodes = (
(90,-20,l),
(107,0,l),
(27,0,l),
(10,-20,l),
(10,-100,l),
(164,-100,l),
(164,-116,l),
(10,-116,l),
(10,-197,o),
(10,-197,o),
(92,-197,cs),
(152,-197,ls),
(234,-197,o),
(234,-197,o),
(234,-115,cs),
(234,-20,l)
);
}
);
width = 244;
}
);
unicode = 807;
},
{
glyphname = ogonekcomb;
layers = (
{
anchors = (
{
name = _ogonek;
pos = (310,0);
}
);
layerId = m01;
shapes = (
{
closed = 1;
nodes = (
(10,-197,o),
(10,-197,o),
(92,-197,cs),
(228,-197,ls),
(310,-197,o),
(310,-197,o),
(310,-116,c),
(80,-116,l),
(80,-100,l),
(310,-100,l),
(310,0,l),
(230,0,l),
(230,-20,l),
(105,-20,ls),
(10,-20,o),
(10,-20,o),
(10,-115,cs)
);
}
);
width = 320;
}
);
unicode = 808;
},
{
export = 0;
glyphname = _cap.strokebutt;
layers = (
{
anchors = (
{
name = origin;
}
);
layerId = m01;
shapes = (
{
closed = 1;
nodes = (
(0,300,l),
(-1,300,l),
(-10,183,o),
(-10,183,o),
(-10,153,cs),
(-10,103,o),
(-5,49,o),
(-1,0,c),
(0,0,l)
);
}
);
width = 50;
}
);
},
